STARTFONT 2.3
FONT -FontForge-Butcherman-Book-R-Normal--14-140-72-72-P-76-ISO10646-1
SIZE 14 72 72  4
FONTBOUNDINGBOX 22 28 -2 -10
COMMENT "Generated by fontforge, http://fontforge.sourceforge.net"
COMMENT "Copyright (c) 2011, Typomondo, with Reserved Font Name  "Butcherman"."
STARTPROPERTIES 41
FOUNDRY "FontForge"
FAMILY_NAME "Butcherman"
WEIGHT_NAME "Book"
SLANT "R"
SETWIDTH_NAME "Normal"
ADD_STYLE_NAME ""
PIXEL_SIZE 14
POINT_SIZE 140
RESOLUTION_X 72
RESOLUTION_Y 72
SPACING "P"
AVERAGE_WIDTH 76
CHARSET_REGISTRY "ISO10646"
CHARSET_ENCODING "1"
FONTNAME_REGISTRY ""
CHARSET_COLLECTIONS "ISO8859-2 ISO8859-9 ISO8859-4 ISO10646-1"
BITS_PER_PIXEL 4
FONT_NAME "Butcherman-Regular"
FACE_NAME "Butcherman Regular"
COPYRIGHT "Copyright (c) 2011, Typomondo, with Reserved Font Name  "Butcherman"."
FONT_VERSION "001.004"
FONT_ASCENT 11
FONT_DESCENT 3
UNDERLINE_POSITION -1
UNDERLINE_THICKNESS 1
X_HEIGHT 10
CAP_HEIGHT 10
DEFAULT_CHAR 3
RAW_ASCENT 799
RAW_DESCENT 200
NORM_SPACE 2
RELATIVE_WEIGHT 40
RELATIVE_SETWIDTH 50
SUPERSCRIPT_X 0
SUPERSCRIPT_Y 4
SUPERSCRIPT_SIZE 8
SUBSCRIPT_X 0
SUBSCRIPT_Y 1
SUBSCRIPT_SIZE 8
AVG_LOWERCASE_WIDTH 82
AVG_UPPERCASE_WIDTH 78
ENDPROPERTIES
CHARS 331
STARTCHAR NULL.dup1
ENCODING 0
SWIDTH 161 0
DWIDTH 2 0
BBX 1 1 0 0
BITMAP
00
ENDCHAR
STARTCHAR CR
ENCODING 13
SWIDTH 161 0
DWIDTH 2 0
BBX 1 1 0 0
BITMAP
00
ENDCHAR
STARTCHAR space
ENCODING 32
SWIDTH 161 0
DWIDTH 2 0
BBX 1 1 0 0
BITMAP
00
ENDCHAR
STARTCHAR exclam
ENCODING 33
SWIDTH 350 0
DWIDTH 5 0
BBX 5 18 0 0
BITMAP
022100
8FFF50
6FFF20
1FFF00
3FFD00
2FFB00
0CF800
09F900
08F700
07F700
07F500
037300
000000
5CEE30
2FFF30
0FFF50
0FFF40
053200
ENDCHAR
STARTCHAR quotedbl
ENCODING 34
SWIDTH 541 0
DWIDTH 8 0
BBX 7 6 0 5
BITMAP
14413530
4FF5CFC0
1FF48FA0
0DF24F80
0AF02F60
06900A20
ENDCHAR
STARTCHAR numbersign
ENCODING 35
SWIDTH 583 0
DWIDTH 8 0
BBX 8 13 0 -2
BITMAP
00084087
000E10D5
003E01F1
0CFFEFFB
0CFFFFF7
04F87F83
04D03E00
18A06B10
DFFFFF80
8EBBEB40
2C01D000
7804A000
01013000
ENDCHAR
STARTCHAR dollar
ENCODING 36
SWIDTH 534 0
DWIDTH 7 0
BBX 7 18 0 -4
BITMAP
00052000
000B4000
000C3000
000B7000
04DFFD30
0EFFFFD0
6FFFFFE0
7FFFFFC0
6FF7CFB0
3FFC9220
08FFFC00
0236EF30
1EF8DF30
08FFFA00
005B6200
000C2000
000D2000
00072000
ENDCHAR
STARTCHAR percent
ENCODING 37
SWIDTH 828 0
DWIDTH 12 0
BBX 12 13 0 -2
BITMAP
0000003C0000
2DF700AA0000
8FFF10D60000
7ECF20E30000
7B7F14D06D50
5D9B0A80EFE0
19E41F30DEF0
00007E00DDF1
00008902F8E0
0000A3009E60
0002E0000100
0004B0000000
000010000000
ENDCHAR
STARTCHAR ampersand
ENCODING 38
SWIDTH 522 0
DWIDTH 7 0
BBX 7 8 0 1
BITMAP
006C9000
006FC000
38BFD760
6FFFFFB0
5EFFFF90
007FC000
007FA000
00131000
ENDCHAR
STARTCHAR quotesingle
ENCODING 39
SWIDTH 300 0
DWIDTH 4 0
BBX 4 6 0 5
BITMAP
1441
3FF6
1FF5
0DF3
0BF1
06A0
ENDCHAR
STARTCHAR parenleft
ENCODING 40
SWIDTH 372 0
DWIDTH 5 0
BBX 5 14 0 -2
BITMAP
0006C0
00BFD0
05FFB0
0DFF90
2FFF70
5FF500
6FF100
7FF000
6FF000
4FF200
0EF800
08FF40
01DF70
001830
ENDCHAR
STARTCHAR parenright
ENCODING 41
SWIDTH 338 0
DWIDTH 5 0
BBX 5 14 0 -2
BITMAP
572000
8FE300
7FFD00
6FFF10
5FFF00
16FF00
00FF00
00EE00
00ED00
01FB00
03F800
18F400
9F9000
8A1000
ENDCHAR
STARTCHAR asterisk
ENCODING 42
SWIDTH 513 0
DWIDTH 7 0
BBX 7 9 0 3
BITMAP
00001000
01609400
05F4E600
00EEF100
7ADFEA70
7DEFEC70
009FE000
00E9F500
02A26400
ENDCHAR
STARTCHAR plus
ENCODING 43
SWIDTH 458 0
DWIDTH 6 0
BBX 6 7 0 2
BITMAP
001000
00BF20
25CF53
6FFFFB
4CEFB8
00BF20
007910
ENDCHAR
STARTCHAR comma
ENCODING 44
SWIDTH 361 0
DWIDTH 5 0
BBX 5 7 0 -2
BITMAP
3BAA20
4FFF50
5FFF50
5FFF50
157F40
004F20
007E00
ENDCHAR
STARTCHAR hyphen
ENCODING 45
SWIDTH 478 0
DWIDTH 7 0
BBX 6 3 0 4
BITMAP
2BBAA9
3FFFF9
2CEDD8
ENDCHAR
STARTCHAR period
ENCODING 46
SWIDTH 374 0
DWIDTH 5 0
BBX 5 5 0 0
BITMAP
3BDE60
1FFF70
0FFF80
0EFF70
053210
ENDCHAR
STARTCHAR slash
ENCODING 47
SWIDTH 291 0
DWIDTH 4 0
BBX 5 13 -1 -2
BITMAP
0001C0
0006C0
000A80
000D50
003F10
009B00
00D600
01F200
03C000
068000
0C3000
1E0000
010000
ENDCHAR
STARTCHAR zero
ENCODING 48
SWIDTH 528 0
DWIDTH 7 0
BBX 7 12 0 -1
BITMAP
00243000
07FFFA00
2FFFFF70
5FFFFF90
4FFFFFB0
3FF4FFA0
3FD0DFA0
2FD0CF80
0FE0EF40
0CF8FE00
07DFF800
00298100
ENDCHAR
STARTCHAR one
ENCODING 49
SWIDTH 366 0
DWIDTH 5 0
BBX 5 12 0 -1
BITMAP
001410
49DF40
CFFF50
17FF70
06FF50
04FF20
03FF20
02FF10
01FE00
00EE00
00AD00
000200
ENDCHAR
STARTCHAR two
ENCODING 50
SWIDTH 575 0
DWIDTH 8 0
BBX 8 13 0 -2
BITMAP
00464100
07FFFC10
3FFFFFA0
4FFFFFD0
4FFFFFD0
2FF7DFB0
1AA3EF90
0005FF30
000CFA00
06BFFECA
2FFFFEF9
4EB954A5
00000020
ENDCHAR
STARTCHAR three
ENCODING 51
SWIDTH 517 0
DWIDTH 7 0
BBX 7 12 0 -1
BITMAP
00342000
0AFFF500
7FFFFF20
6FFFFF70
5FFFFF80
3FF6FF70
2535FF40
002FFF20
0003AF60
03EB8F50
00DFFD00
005A8400
ENDCHAR
STARTCHAR four
ENCODING 52
SWIDTH 466 0
DWIDTH 7 0
BBX 7 15 0 -4
BITMAP
15545600
0AFFD200
0BFF5000
0CFF2000
0FFB0000
0EF90000
0DF98500
1FF7F700
2FF5F500
5FFFFE20
7FFFFF10
2225F900
0000F000
0000D000
00001000
ENDCHAR
STARTCHAR five
ENCODING 53
SWIDTH 583 0
DWIDTH 8 0
BBX 8 12 0 -1
BITMAP
15665322
4FFFFFFB
3FFFFFF9
4FFFFFF7
3FFFFFF5
3FF89AB2
2FF45510
0EFFFF10
0113AF50
03EC7F40
00DFFD00
005A8400
ENDCHAR
STARTCHAR six
ENCODING 54
SWIDTH 582 0
DWIDTH 8 0
BBX 8 13 0 -2
BITMAP
00233100
09FFFE60
5FFFFFF4
7FFFFFF9
5FFFFFF7
4FF8CFF3
1FF45EE0
0CFBA760
08FB6FF0
07FA1FE0
03FFFFE0
008DDC90
00010000
ENDCHAR
STARTCHAR seven
ENCODING 55
SWIDTH 624 0
DWIDTH 9 0
BBX 9 13 0 -2
BITMAP
0234566630
AFFFFFFF70
7FFFFFFF20
5FFFFFFD00
3FFFFFF800
1BA97EF400
00003FE000
00009F8000
0000EF2000
0004F90000
000AF30000
001EC00000
0013300000
ENDCHAR
STARTCHAR eight
ENCODING 56
SWIDTH 459 0
DWIDTH 6 0
BBX 6 13 0 -2
BITMAP
025530
3FFFF9
7FFFFD
6FFFFC
3FFFF9
1FC6F7
0DD8F4
07FFD0
0ACAF0
09A6F0
07FFD0
008640
001000
ENDCHAR
STARTCHAR nine
ENCODING 57
SWIDTH 584 0
DWIDTH 8 0
BBX 8 13 0 -2
BITMAP
00035200
02DFFE70
0DFFFFF4
4FFFFFF6
6FFFFFF8
6FF99FF9
2FFDBFF8
07FFFFF3
01435FD0
0DFAAF80
07FFFD00
00565400
00030000
ENDCHAR
STARTCHAR colon
ENCODING 58
SWIDTH 386 0
DWIDTH 5 0
BBX 5 12 0 0
BITMAP
3ACD60
1EFF70
0FFF80
0EFF90
064320
000000
000000
3CEE50
2FFF70
1FFF80
0DFF70
053210
ENDCHAR
STARTCHAR semicolon
ENCODING 59
SWIDTH 375 0
DWIDTH 5 0
BBX 5 15 0 -3
BITMAP
3BDD40
2FFF60
0FFF60
1FFF60
073310
000000
000000
2B9B40
2FFF60
2FFF60
4FFF50
157F50
004F30
006F10
000200
ENDCHAR
STARTCHAR less
ENCODING 60
SWIDTH 459 0
DWIDTH 6 0
BBX 6 9 0 0
BITMAP
007887
00EFF5
08FF80
5FFD10
5FFB00
0BFF30
01DFD2
002CEC
000001
ENDCHAR
STARTCHAR equal
ENCODING 61
SWIDTH 485 0
DWIDTH 7 0
BBX 6 5 0 4
BITMAP
177766
2FFFFC
023222
1AABA9
1CEDCA
ENDCHAR
STARTCHAR greater
ENCODING 62
SWIDTH 432 0
DWIDTH 6 0
BBX 6 8 0 1
BITMAP
499800
1DFE10
03FFA0
008FF6
007FF6
01DFC1
2CFF30
5DC600
ENDCHAR
STARTCHAR question
ENCODING 63
SWIDTH 577 0
DWIDTH 8 0
BBX 7 13 0 -2
BITMAP
02CED600
1DFFFF70
4FFFFFD0
4FFFFFF0
1FF6DFE0
0221EFA0
0005FF20
0008F800
00079000
00133000
007FF100
003FF100
00176000
ENDCHAR
STARTCHAR at
ENCODING 64
SWIDTH 930 0
DWIDTH 13 0
BBX 13 15 0 -3
BITMAP
00019EED600000
001DFDBBF90000
00BB35554E9000
05C2DFFFA6F500
0C56FFFFE0ED00
2F16FFFFC0BF50
6E02FF7FA09F80
6D01D71F908F90
5F009DDF905F70
5F30EA1FE23F40
2F70EECFEDBE00
0CD08CCB4DB400
04F80000000000
007FA667500000
0004CFFE800000
ENDCHAR
STARTCHAR A
ENCODING 65
SWIDTH 494 0
DWIDTH 7 0
BBX 7 14 0 -3
BITMAP
01111000
4EFFFE30
08FFF800
07FFF500
08FFF400
07FFF300
07FAF200
08F6F300
08EBF200
09FFF100
07F9E000
06A5B000
03216000
00021000
ENDCHAR
STARTCHAR B
ENCODING 66
SWIDTH 517 0
DWIDTH 7 0
BBX 7 12 0 -1
BITMAP
01355200
5FFFFF70
0BFFFFB0
08FFFFA0
07FFFF80
06FA7F50
06FC9F20
05FFFB00
04FABE00
01F98D00
01FFFB00
00267300
ENDCHAR
STARTCHAR C
ENCODING 67
SWIDTH 504 0
DWIDTH 7 0
BBX 7 13 0 -2
BITMAP
00265100
07FFFC20
5FFFFF90
8FFFFFA0
8FFFFFA0
6FF6DF90
4FF36A60
2FF20000
0EF29910
0AF8EE00
06FFF800
0065A000
00222000
ENDCHAR
STARTCHAR D
ENCODING 68
SWIDTH 522 0
DWIDTH 7 0
BBX 7 13 0 -2
BITMAP
00023200
5DFFFE30
2FFFFFD0
0CFFFFF0
0AFFFFE0
09FD6FC0
07FA0F90
05FA0E60
03FA3F40
01FECF30
01EBFD00
0074A200
00232000
ENDCHAR
STARTCHAR E
ENCODING 69
SWIDTH 570 0
DWIDTH 8 0
BBX 8 12 0 -1
BITMAP
02444310
5FFFFFF4
0CFFFFE0
0AFFFFA0
09FFFF60
08FB3720
07FDA400
05FFF700
04FB4200
02FDC800
01AEE800
00372300
ENDCHAR
STARTCHAR F
ENCODING 70
SWIDTH 559 0
DWIDTH 8 0
BBX 8 12 0 -1
BITMAP
02332200
5FFFFFE1
08FFFFB0
05FFFF80
04FFFF60
02FF7A50
00FFBA00
00FFFF00
00DF5400
00EF3000
00FF4000
00573000
ENDCHAR
STARTCHAR G
ENCODING 71
SWIDTH 499 0
DWIDTH 7 0
BBX 7 13 0 -2
BITMAP
00231000
1AFFF800
5FFFFF60
7FFFFFA0
6FFFFF90
4FE5FF60
2FD0AD50
0FD49920
0DF5EF50
0BF5BF40
06FFFF10
0078B400
00200000
ENDCHAR
STARTCHAR H
ENCODING 72
SWIDTH 726 0
DWIDTH 10 0
BBX 10 14 0 -3
BITMAP
0003323320
4CEF54FFF7
0CFF31FFE1
0AFF34FFA0
07FF34FF70
04FF24FF20
01FFBCFE00
00EFFFFC00
00DF49FA00
00BF4AF700
00BF4BF500
005206A300
0000010000
0000030000
ENDCHAR
STARTCHAR I
ENCODING 73
SWIDTH 401 0
DWIDTH 6 0
BBX 6 12 0 -1
BITMAP
355551
6FFFD0
0AFF80
05FF80
07FF60
06FF30
05FF30
03FF20
02FF10
00EF00
00AE00
002510
ENDCHAR
STARTCHAR J
ENCODING 74
SWIDTH 455 0
DWIDTH 6 0
BBX 7 12 -1 -1
BITMAP
00033310
000AFFA0
0005FF50
0004FF10
0006FD00
0006FC00
0006FA00
0446F700
3F97F500
1FDCF300
0AEEC000
00241000
ENDCHAR
STARTCHAR K
ENCODING 75
SWIDTH 580 0
DWIDTH 8 0
BBX 8 12 0 -1
BITMAP
14321410
5FFD3FF6
0BFD6F60
05FEAD00
02FFFA00
01FFFA00
00DFFB00
00CFFB00
00AFED00
009C6F10
007D2F40
00231420
ENDCHAR
STARTCHAR L
ENCODING 76
SWIDTH 416 0
DWIDTH 6 0
BBX 7 12 0 -1
BITMAP
34434000
4FFF4000
1FFC0000
0DFD0000
0CFB0000
0AFB0000
08FC0000
07FC0000
05FC0000
03FFDC20
01FFFE00
00466A00
ENDCHAR
STARTCHAR M
ENCODING 77
SWIDTH 740 0
DWIDTH 10 0
BBX 10 12 0 -1
BITMAP
1247446720
5FFF86FFF7
0CFFD9FFE0
0AFFFEFFC0
07FFFFFFA0
06FFFFFFA0
04FEFFEFA0
01FEBFAF90
00DF9F8F80
00BF7B8F50
009B388C30
0041000200
ENDCHAR
STARTCHAR N
ENCODING 78
SWIDTH 610 0
DWIDTH 9 0
BBX 9 14 0 -3
BITMAP
0123241000
6FFE1FFC10
0CFF4EF400
0BFFAEF200
0AFFEFF000
08FFFFD000
06FFFFB000
03FEFF9000
00FBEF9000
00EAAF8000
00DB6F6000
00A83C4000
0043120000
0001000000
ENDCHAR
STARTCHAR O
ENCODING 79
SWIDTH 504 0
DWIDTH 7 0
BBX 7 13 0 -2
BITMAP
00242000
08FFFB10
5FFFFF80
9FFFFFA0
7FFFFF90
5FF4FFA0
3FD0DFA0
1FE0CF70
0DF1EF30
0BF8FE00
06FFF900
0064A400
00001000
ENDCHAR
STARTCHAR P
ENCODING 80
SWIDTH 545 0
DWIDTH 8 0
BBX 8 12 0 -1
BITMAP
02344300
5FFFFFC0
09FFFFF3
06FFFFF2
05FFFFF0
03FF3BE0
00FF3BD0
00DFCEA0
00CFCB20
009F4000
008F4000
00363000
ENDCHAR
STARTCHAR Q
ENCODING 81
SWIDTH 520 0
DWIDTH 7 0
BBX 8 13 0 -2
BITMAP
00033000
05DFFA10
3FFFFF90
8FFFFFD0
AFFFEFE0
7FF97FD0
3FF76FC0
0FF65FB0
0CF97FA0
05FEDF60
009FFF91
00078EB0
00000420
ENDCHAR
STARTCHAR R
ENCODING 82
SWIDTH 599 0
DWIDTH 8 0
BBX 9 12 0 -1
BITMAP
0125530000
5FFFFFD400
0BFFFFFF00
04FFFFFF10
02FFEFFF00
02FF47FE00
00DF7AFB00
00BFFFF600
008FBFE000
007F6DF200
005F7BF200
0027248300
ENDCHAR
STARTCHAR S
ENCODING 83
SWIDTH 504 0
DWIDTH 7 0
BBX 7 12 0 -1
BITMAP
00034000
06EFFC10
2FFFFFB0
8FFFFFA0
9FFFFFA0
9FF5EF90
5FFB7120
09FFFC00
0246FF30
2FF7EF10
0AFFF900
01756200
ENDCHAR
STARTCHAR T
ENCODING 84
SWIDTH 622 0
DWIDTH 9 0
BBX 9 13 0 -2
BITMAP
0133431000
4FFFFFFD10
0DFFFFFA00
09FFFFF900
08FFFFF700
06ADFC9500
0008FB0000
0008FA0000
0008F90000
0007F80000
0005F90000
0006F70000
0003210000
ENDCHAR
STARTCHAR U
ENCODING 85
SWIDTH 637 0
DWIDTH 9 0
BBX 9 12 0 -1
BITMAP
1355031000
4FFE0CFE30
0DFD0DFD00
0BFF0DF900
09FF0EF600
07FE0EF200
05FC1FF000
05FD2FE000
03FF4FC000
00FFDFA000
009D9B3000
0012140000
ENDCHAR
STARTCHAR V
ENCODING 86
SWIDTH 570 0
DWIDTH 8 0
BBX 8 13 0 -2
BITMAP
23521543
4FF54FF7
0BF67FE0
08F79F90
07F8CF50
07F8EF20
05FAFE00
03FDFB00
01FFF700
00DFF400
00AFE000
005DA000
00001000
ENDCHAR
STARTCHAR W
ENCODING 87
SWIDTH 777 0
DWIDTH 11 0
BBX 11 12 0 -1
BITMAP
001208134100
5BED4F58FE60
1AFE6F8DF900
01EFAFDFD100
00DFEFFF7000
006FFFFF2000
001FFFFF2000
000BFEFD0000
0008FAFB0000
0004F6F50000
0000B5E20000
000001000000
ENDCHAR
STARTCHAR X
ENCODING 88
SWIDTH 587 0
DWIDTH 8 0
BBX 9 12 0 -1
BITMAP
0032120000
4EFD4FFA10
03FFAFA100
00AFFF1000
004FFC0000
002FF90000
001FF50000
000DF40000
001FF50000
003FD90000
006D9E0000
0075351000
ENDCHAR
STARTCHAR Y
ENCODING 89
SWIDTH 688 0
DWIDTH 10 0
BBX 10 12 0 -1
BITMAP
0245004000
4CFF52FEC5
00AFD7FF70
001CFFF900
0005FFF100
0001EFE000
00009FD000
00005FC000
00003FB000
00001FA000
00000F9000
0000062000
ENDCHAR
STARTCHAR Z
ENCODING 90
SWIDTH 695 0
DWIDTH 10 0
BBX 10 12 0 -1
BITMAP
0145553000
5FFFFFFFC4
1EFFFFFFD0
08FFFFFF60
04FFFFFD00
03C5CFE400
0003FF3000
0008F80000
000CD10000
005FFE8000
009EFF5000
0011240000
ENDCHAR
STARTCHAR bracketleft
ENCODING 91
SWIDTH 410 0
DWIDTH 6 0
BBX 6 13 0 -1
BITMAP
0FFFE2
0FFFF4
0FFCC3
1FF000
1FF000
2FF000
2FF100
3FF100
3FF100
1FF100
0EF984
0BFDF2
031220
ENDCHAR
STARTCHAR backslash
ENCODING 92
SWIDTH 292 0
DWIDTH 4 0
BBX 5 13 0 -2
BITMAP
B30000
A80000
6C0000
3E0000
0D5000
09B000
04E000
01F300
00B500
006800
002D00
000C20
000100
ENDCHAR
STARTCHAR bracketright
ENCODING 93
SWIDTH 407 0
DWIDTH 6 0
BBX 5 14 0 -1
BITMAP
001000
7FFF90
9FFFA0
7CDFA0
005FB0
004FB0
004FC0
003FC0
003FE0
003FD0
004FC0
78AFC0
AFFFC0
023240
ENDCHAR
STARTCHAR asciicircum
ENCODING 94
SWIDTH 523 0
DWIDTH 7 0
BBX 7 5 0 10
BITMAP
00BCD100
04FFF800
0AFAFE10
2FD08F90
3D401C50
ENDCHAR
STARTCHAR underscore
ENCODING 95
SWIDTH 452 0
DWIDTH 6 0
BBX 6 3 0 -1
BITMAP
4CBBB7
5FFFF9
155543
ENDCHAR
STARTCHAR grave
ENCODING 96
SWIDTH 444 0
DWIDTH 6 0
BBX 6 4 0 10
BITMAP
03C200
1BFE30
049DF3
000021
ENDCHAR
STARTCHAR a
ENCODING 97
SWIDTH 479 0
DWIDTH 7 0
BBX 7 13 0 -2
BITMAP
24565750
5FFFFE20
09FFFB00
07FFFA00
07FFF900
07FFF800
07FBF900
09F6FA00
09F6FA00
0AFFF800
09F7F700
09C0C600
01200000
ENDCHAR
STARTCHAR b
ENCODING 98
SWIDTH 610 0
DWIDTH 9 0
BBX 9 12 0 -1
BITMAP
0012343000
5DFFFFFA00
0CFFFFFF10
04FFFFFF20
03FFFFFF20
00FF79FD00
00DF88F700
00DFFFD100
00AFBDF200
008F58F400
006FCCF100
00479D9000
ENDCHAR
STARTCHAR c
ENCODING 99
SWIDTH 534 0
DWIDTH 7 0
BBX 8 12 0 -1
BITMAP
00256200
07FFFF50
5FFFFFE2
9FFFFFF1
8FFFFFF2
5FFAAFF0
2FF74DD0
0FF60000
0CF74920
09FABF30
02FFFD00
00379200
ENDCHAR
STARTCHAR d
ENCODING 100
SWIDTH 573 0
DWIDTH 8 0
BBX 8 13 0 -2
BITMAP
00244100
5FFFFF90
1FFFFFF7
0BFFFFFC
07FFFFFC
03FFBEFA
00FF38F6
00DF27F2
00BF39D0
009F3CA0
008FEF60
0078DE20
00302200
ENDCHAR
STARTCHAR e
ENCODING 101
SWIDTH 632 0
DWIDTH 9 0
BBX 9 12 0 -1
BITMAP
0023432000
5EFFFFFF30
0DFFFFFA00
0AFFFFF500
07FFFFF300
05FF87B100
02FF741000
00EFFF5000
00DFBA3000
00AF753000
008FFF7000
0031755000
ENDCHAR
STARTCHAR f
ENCODING 102
SWIDTH 559 0
DWIDTH 8 0
BBX 8 13 0 -2
BITMAP
02332200
5FFFFFE1
08FFFFA0
04FFFF80
04FFFF60
02FF7A50
01FFB900
01FFFC00
00DF4400
00FF2000
01FF3000
01583000
00011000
ENDCHAR
STARTCHAR g
ENCODING 103
SWIDTH 546 0
DWIDTH 8 0
BBX 8 13 0 -2
BITMAP
00232000
0AFFFD40
6FFFFFE1
8FFFFFF5
7FFFFFF5
5FF7CFF2
2FF26FF0
0EF38540
0AF6DFE0
08F94FC0
04FFFFB0
009CDC50
00010000
ENDCHAR
STARTCHAR h
ENCODING 104
SWIDTH 730 0
DWIDTH 10 0
BBX 10 12 0 -1
BITMAP
0025426541
3DFF52FFF9
0BFF40EFF1
09FF42FFA0
07FF42FF80
04FF32FF40
01FFDDFE10
00EFEEFD00
00DF48FB00
00BF59F800
00AF4AF600
0041048400
ENDCHAR
STARTCHAR i
ENCODING 105
SWIDTH 412 0
DWIDTH 6 0
BBX 6 12 0 -1
BITMAP
245531
5FFFF1
08FFA0
04FF80
05FF50
05FF20
04FF20
01FF20
00EE00
00DE00
00BC00
000400
ENDCHAR
STARTCHAR j
ENCODING 106
SWIDTH 458 0
DWIDTH 6 0
BBX 7 12 -1 -1
BITMAP
00145200
001EFFA0
000AFF80
0006FF30
0006FF30
0006FF20
0005FF10
0454FE00
2FC4FD00
0DFBFA00
06EFF600
00034200
ENDCHAR
STARTCHAR k
ENCODING 107
SWIDTH 636 0
DWIDTH 9 0
BBX 9 12 0 -1
BITMAP
0122235400
5FFF4CFC30
0AFF4FD100
04FF8F6000
00EFAF3000
00DFDC0000
00CFF90000
009FFC0000
007FDF2000
005F4E8000
003F4AD000
0013234000
ENDCHAR
STARTCHAR l
ENCODING 108
SWIDTH 438 0
DWIDTH 6 0
BBX 7 12 0 -1
BITMAP
02446400
3FFFB100
0BFF4000
09FF4000
08FF2000
04FF3000
01FF2000
00FF1000
00EF2000
00CFFD50
00AFDF20
00622A00
ENDCHAR
STARTCHAR m
ENCODING 109
SWIDTH 770 0
DWIDTH 11 0
BBX 11 12 0 -1
BITMAP
000241664100
4AEFC1FFFC20
1DFFE6FFF300
0BFFFCFFD000
09FFFFFFB000
07FFFFFF8000
05FFFFFF6000
03FEDEDF4000
01FEAAEF1000
00FF98FA0000
00CB66D70000
006000110000
ENDCHAR
STARTCHAR n
ENCODING 110
SWIDTH 664 0
DWIDTH 9 0
BBX 9 13 0 -2
BITMAP
2455233230
6FFF67FFB0
0EFFB5FF30
0CFFF7FE00
0BFFFDFB00
0AFFFFF900
08FFFFF700
05FDFFF500
03FADFF200
02FA9FE000
00F96FA000
00A44D5000
0000011000
ENDCHAR
STARTCHAR o
ENCODING 111
SWIDTH 545 0
DWIDTH 8 0
BBX 8 12 0 -1
BITMAP
00244100
08FFFE50
5FFFFFE2
9FFFFFF4
7FFFFFF5
5FF6CFF4
3FF29FF2
1FF18FE0
0DF3AF90
09FAEF50
04DFFE10
0012A600
ENDCHAR
STARTCHAR p
ENCODING 112
SWIDTH 557 0
DWIDTH 8 0
BBX 8 12 0 -1
BITMAP
02433300
5FFFFFC1
09FFFFF5
07FFFFF6
06FFFFF4
04FF3CF2
02FF1BE0
01FFBEB0
00DFCD40
00CF3000
00BF3000
00572000
ENDCHAR
STARTCHAR q
ENCODING 113
SWIDTH 562 0
DWIDTH 8 0
BBX 8 13 0 -2
BITMAP
00045200
06EFFF70
3FFFFFF4
8FFFFFF6
9FFFCFF8
7FFB1FF6
3FF90DF6
0FF90CF5
0BFC4EF3
04FFDFE0
006FFFF5
000478F4
00000050
ENDCHAR
STARTCHAR r
ENCODING 114
SWIDTH 616 0
DWIDTH 9 0
BBX 9 13 0 -2
BITMAP
0024430000
6EFFFFE800
0AFFFFFF50
04FFFFFF40
02FFFFFF20
00FF66FE00
00EF88FB00
00CFFFF700
00BFDFC100
00BF5FC000
00AF5EC000
006627C000
0000001000
ENDCHAR
STARTCHAR s
ENCODING 115
SWIDTH 481 0
DWIDTH 7 0
BBX 7 12 0 -1
BITMAP
00243000
06FFFA00
3FFFFF60
8FFFFF50
9FFFFF30
9FF6FF20
5FF86510
1CFFF300
005AF900
0DE4F900
0AFFF200
02A86000
ENDCHAR
STARTCHAR t
ENCODING 116
SWIDTH 683 0
DWIDTH 10 0
BBX 9 13 0 -2
BITMAP
0035555300
5FFFFFFFD0
0EFFFFFF60
09FFFFFF30
06FFFFFF20
04B9FF8A00
0001FF4000
0001FF5000
0000FF4000
0000DF4000
0000BF3000
0000BF2000
0000262000
ENDCHAR
STARTCHAR u
ENCODING 117
SWIDTH 708 0
DWIDTH 10 0
BBX 10 11 0 0
BITMAP
0134202000
3EFF61FEC6
0BFF63FFF3
08FF81FFC0
05FF92FF70
02FF92FF30
01FF74FF20
00EF85FF10
00BFB7FC00
006FFEFA00
002BAAD400
ENDCHAR
STARTCHAR v
ENCODING 118
SWIDTH 644 0
DWIDTH 9 0
BBX 9 12 0 -1
BITMAP
0234024210
2EFE09FF50
08FF1DFB00
03FF3EF600
00FF4EF300
00CF7FE000
008F9FB000
004FCF8000
000EFF5000
000AFF1000
0003FE0000
0001C50000
ENDCHAR
STARTCHAR w
ENCODING 119
SWIDTH 704 0
DWIDTH 10 0
BBX 10 11 0 0
BITMAP
0011231100
6EF79B3FD5
09F9BF6FD0
02FCEFCF70
00EFFFFF10
008FFFFC00
003FFFFA00
000EFEF800
000AFAF800
0006F7F400
0002A4D300
ENDCHAR
STARTCHAR x
ENCODING 120
SWIDTH 599 0
DWIDTH 8 0
BBX 9 12 0 -1
BITMAP
0143131000
4DFE3FFB10
02FFAFA100
009FFF2000
003FFD0000
001FFA0000
000FF60000
000CF50000
000FF60000
003FDA0000
006E8E0000
0065242000
ENDCHAR
STARTCHAR y
ENCODING 121
SWIDTH 604 0
DWIDTH 8 0
BBX 9 12 0 -1
BITMAP
0241030000
3DFB0EE910
01CF7FE200
006FFF4000
001FFE0000
000CFC0000
0009FB0000
0005FA0000
0004F90000
0005F80000
0005F60000
0003830000
ENDCHAR
STARTCHAR z
ENCODING 122
SWIDTH 622 0
DWIDTH 9 0
BBX 9 12 0 -1
BITMAP
0155552000
5FFFFFFE10
1EFFFFFB00
07FFFFF500
04FFFFF200
01D6EF8000
0014FC0000
0008F40000
000CD00000
002FDC4000
006FFF4000
0013472000
ENDCHAR
STARTCHAR braceleft
ENCODING 123
SWIDTH 372 0
DWIDTH 5 0
BBX 5 14 0 -2
BITMAP
0006C0
00BFD0
05FFB0
0DFF90
2FFF70
5FF500
6FF100
7FF000
6FF000
4FF200
0EF800
08FF40
01DF70
001830
ENDCHAR
STARTCHAR bar
ENCODING 124
SWIDTH 208 0
DWIDTH 3 0
BBX 3 14 0 -2
BITMAP
0200
1F00
2F00
2F10
1E00
2D00
2E00
2E00
2F00
1E00
0D00
1D00
2D00
0400
ENDCHAR
STARTCHAR braceright
ENCODING 125
SWIDTH 338 0
DWIDTH 5 0
BBX 5 14 0 -2
BITMAP
572000
8FE300
7FFD00
6FFF10
5FFF00
16FF00
00FF00
00EE00
00ED00
01FB00
03F800
18F400
9F9000
8A1000
ENDCHAR
STARTCHAR asciitilde
ENCODING 126
SWIDTH 535 0
DWIDTH 8 0
BBX 7 4 0 7
BITMAP
08319B10
5FEEFFB0
09FD7D50
00100000
ENDCHAR
STARTCHAR exclamdown
ENCODING 161
SWIDTH 347 0
DWIDTH 5 0
BBX 5 18 0 0
BITMAP
031000
0FFF40
0FFF50
1FFF40
5EFF40
000100
025200
07F600
07F800
07F700
09F900
0BF900
1FFB00
3FFD00
1FFF00
5FFF20
8FFF60
044200
ENDCHAR
STARTCHAR cent
ENCODING 162
SWIDTH 552 0
DWIDTH 8 0
BBX 8 20 0 -5
BITMAP
00022000
00063000
00073000
00073000
00198300
06FFFF50
4FFFFFF2
8FFFFFF2
7FFFFFF2
4FFB9FF1
1FF83CD0
0EF70000
0BF84920
08FBAF40
02FFFD10
003AA200
00052000
00053000
00063000
00054000
ENDCHAR
STARTCHAR sterling
ENCODING 163
SWIDTH 589 0
DWIDTH 8 0
BBX 8 12 0 -1
BITMAP
00232000
07FFFE60
4FFFFFF4
6FFFFFFA
4FFFFFFB
2FF9BFF6
0EF54FF2
5FFD4021
17FC1010
07FFFDA0
09FEFF50
02356B10
ENDCHAR
STARTCHAR yen
ENCODING 165
SWIDTH 692 0
DWIDTH 10 0
BBX 11 11 -1 1
BITMAP
19DFC04DBA50
006FF59FF900
0008FDFFB000
0000DFFF1000
0166CFFFA910
01889FFC5600
00887EFC8810
00678EFB7710
00000BF70000
000009F80000
000005A60000
ENDCHAR
STARTCHAR brokenbar
ENCODING 166
SWIDTH 201 0
DWIDTH 3 0
BBX 2 14 0 -2
BITMAP
12
3D
3F
3E
2D
06
00
00
17
1E
1C
0E
1E
04
ENDCHAR
STARTCHAR section
ENCODING 167
SWIDTH 477 0
DWIDTH 7 0
BBX 7 14 0 -3
BITMAP
00265000
03EFFD10
0CFFFF40
0EFFFE00
0CF9FB00
0AFA7300
1CFFF600
8FB4FA00
9FB3F600
5FFDE100
07CFC000
298AD000
0DFF8000
04861000
ENDCHAR
STARTCHAR dieresis
ENCODING 168
SWIDTH 633 0
DWIDTH 9 0
BBX 8 4 0 11
BITMAP
06641696
0FFA2FFB
1FFA2FFB
0BC71AA7
ENDCHAR
STARTCHAR copyright
ENCODING 169
SWIDTH 783 0
DWIDTH 11 0
BBX 11 13 0 -2
BITMAP
0004AB930000
00AB57698000
09A2DFF45600
2E2AFFFC0A00
6A0CFFFC0640
770CFAFC0560
780AF2970560
6908F2100740
2C05F5F60B00
0A51FFE28700
02D53559D100
002AEDEA1000
000001000000
ENDCHAR
STARTCHAR guillemotleft
ENCODING 171
SWIDTH 759 0
DWIDTH 11 0
BBX 11 8 0 1
BITMAP
003774187700
00BFC19FF600
08FF54FFB000
3FFB0BFF2000
6FF40CFD0000
0BFB04FF4000
01DF808FD200
003EF60BEC10
ENDCHAR
STARTCHAR uni00AD
ENCODING 173
SWIDTH 446 0
DWIDTH 6 0
BBX 6 2 0 4
BITMAP
2CBAA6
3CEDD6
ENDCHAR
STARTCHAR registered
ENCODING 174
SWIDTH 780 0
DWIDTH 11 0
BBX 11 12 0 -1
BITMAP
000499720000
01BC51175000
09DDFFD46400
2E1CFFFC0A00
6A09FFFC0840
8708F4DA0870
4505FBF70860
3801FDF20620
0D10BBA90700
07C1797B3700
009E7449B100
0005BEC70000
ENDCHAR
STARTCHAR macron
ENCODING 175
SWIDTH 446 0
DWIDTH 6 0
BBX 6 2 0 4
BITMAP
2CBBA6
3CEDD6
ENDCHAR
STARTCHAR acute
ENCODING 180
SWIDTH 439 0
DWIDTH 6 0
BBX 6 4 0 10
BITMAP
001B50
02DFC2
1ED951
030000
ENDCHAR
STARTCHAR mu
ENCODING 181
SWIDTH 679 0
DWIDTH 10 0
BBX 10 12 0 -1
BITMAP
0144111000
7FFF25FEB4
0FFF27FFD1
0CFF45FF80
09FF56FF30
07FF56FF00
05FF38FD00
04FF49FB00
01EF4CF800
00BFDFF500
005D8DC100
0000010000
ENDCHAR
STARTCHAR paragraph
ENCODING 182
SWIDTH 591 0
DWIDTH 8 0
BBX 9 12 0 -1
BITMAP
0033442000
3EFFFFFD10
9FFFFBF400
8FFFF2F200
5FFFE2F000
2FFFE3F000
09FFD3D000
0032D3A000
0000C37000
0000C27000
0000C36000
0000624000
ENDCHAR
STARTCHAR periodcentered
ENCODING 183
SWIDTH 388 0
DWIDTH 5 0
BBX 5 5 0 3
BITMAP
156730
2FFF80
0FFF80
0EFF80
0AA950
ENDCHAR
STARTCHAR cedilla
ENCODING 184
SWIDTH 270 0
DWIDTH 4 0
BBX 4 5 0 -5
BITMAP
0D30
3D30
39F3
15E2
2991
ENDCHAR
STARTCHAR guillemotright
ENCODING 187
SWIDTH 767 0
DWIDTH 11 0
BBX 11 9 0 0
BITMAP
499805640000
1DFE14FF5000
03FF906FF300
008FF40EFC00
007FF308FF40
02EFB13FFD10
2DFF20BFF300
5DC607FF7000
000000110000
ENDCHAR
STARTCHAR Agrave
ENCODING 192
SWIDTH 494 0
DWIDTH 7 0
BBX 8 18 -1 -3
BITMAP
08900000
3EFB1000
16AED000
00003000
00111100
04EFFFE3
008FFF80
007FFF50
008FFF40
007FFF30
007FAF20
008F6F30
008EBF20
009FFF10
007F9E00
006A5B00
00321600
00002100
ENDCHAR
STARTCHAR Aacute
ENCODING 193
SWIDTH 494 0
DWIDTH 7 0
BBX 9 18 0 -3
BITMAP
000002D200
00003EFA10
0004FD8400
0001200000
0111100000
4EFFFE3000
08FFF80000
07FFF50000
08FFF40000
07FFF30000
07FAF20000
08F6F30000
08EBF20000
09FFF10000
07F9E00000
06A5B00000
0321600000
0002100000
ENDCHAR
STARTCHAR Acircumflex
ENCODING 194
SWIDTH 494 0
DWIDTH 7 0
BBX 7 19 0 -3
BITMAP
01886000
06FFF200
0DFCF900
4F71CF20
99002D40
01111000
4EFFFE30
08FFF800
07FFF500
08FFF400
07FFF300
07FAF200
08F6F300
08EBF200
09FFF100
07F9E000
06A5B000
03216000
00021000
ENDCHAR
STARTCHAR Atilde
ENCODING 195
SWIDTH 494 0
DWIDTH 7 0
BBX 7 17 0 -3
BITMAP
2A23CA00
8FEFFF70
0BF97C20
01211000
4EFFFE30
08FFF800
07FFF500
08FFF400
07FFF300
07FAF200
08F6F300
08EBF200
09FFF100
07F9E000
06A5B000
03216000
00021000
ENDCHAR
STARTCHAR Adieresis
ENCODING 196
SWIDTH 494 0
DWIDTH 7 0
BBX 7 18 0 -3
BITMAP
56506870
DFD0FFD0
EFC0EFE0
9B90AA90
01111000
4EFFFE30
08FFF800
07FFF500
08FFF400
07FFF300
07FAF200
08F6F300
08EBF200
09FFF100
07F9E000
06A5B000
03216000
00021000
ENDCHAR
STARTCHAR Aring
ENCODING 197
SWIDTH 494 0
DWIDTH 7 0
BBX 7 18 0 -3
BITMAP
01BFB100
05C3C600
02D4C200
008E7000
01111000
4EFFFE30
08FFF800
07FFF500
08FFF400
07FFF300
07FAF200
08F6F300
08EBF200
09FFF100
07F9E000
06A5B000
03216000
00021000
ENDCHAR
STARTCHAR AE
ENCODING 198
SWIDTH 733 0
DWIDTH 10 0
BBX 10 14 0 -3
BITMAP
0023444310
4EFFFFFFF9
08FFFFFFF3
08FFFFFFC0
07FFFFFF90
07FFFF2640
08FAFFA700
08F7FFFC00
07EBFE4300
09FFFECB10
07FADBFC00
05A4A65400
0310560400
0002100000
ENDCHAR
STARTCHAR Ccedilla
ENCODING 199
SWIDTH 504 0
DWIDTH 7 0
BBX 7 18 0 -7
BITMAP
00265100
07FFFC20
5FFFFF90
8FFFFFA0
8FFFFFA0
6FF6DF90
4FF36A60
2FF20000
0EF29910
0AF8EE00
06FFF800
0065A000
00222000
00009700
0000E410
00009D70
00004C60
00008940
ENDCHAR
STARTCHAR Egrave
ENCODING 200
SWIDTH 570 0
DWIDTH 8 0
BBX 8 16 0 -1
BITMAP
0D400000
8FF60000
38CF7000
00012000
02444310
5FFFFFF4
0CFFFFE0
0AFFFFA0
09FFFF60
08FB3720
07FDA400
05FFF700
04FB4200
02FDC800
01AEE800
00372300
ENDCHAR
STARTCHAR Eacute
ENCODING 201
SWIDTH 570 0
DWIDTH 8 0
BBX 9 16 0 -1
BITMAP
0000006B00
000008FF50
0000AEB620
0000210000
0244431000
5FFFFFF400
0CFFFFE000
0AFFFFA000
09FFFF6000
08FB372000
07FDA40000
05FFF70000
04FB420000
02FDC80000
01AEE80000
0037230000
ENDCHAR
STARTCHAR Ecircumflex
ENCODING 202
SWIDTH 570 0
DWIDTH 8 0
BBX 8 17 0 -1
BITMAP
00489200
00DFFA00
04FDEF30
0BE25FB0
1D3007C0
02444310
5FFFFFF4
0CFFFFE0
0AFFFFA0
09FFFF60
08FB3720
07FDA400
05FFF700
04FB4200
02FDC800
01AEE800
00372300
ENDCHAR
STARTCHAR Edieresis
ENCODING 203
SWIDTH 570 0
DWIDTH 8 0
BBX 8 16 0 -1
BITMAP
27623793
5FF66FF7
5FF66FF7
3BC44BA4
02444310
5FFFFFF4
0CFFFFE0
0AFFFFA0
09FFFF60
08FB3720
07FDA400
05FFF700
04FB4200
02FDC800
01AEE800
00372300
ENDCHAR
STARTCHAR Igrave
ENCODING 204
SWIDTH 401 0
DWIDTH 6 0
BBX 8 16 -2 -1
BITMAP
03C10000
1BFD3000
049DF300
00002100
00355551
006FFFD0
000AFF80
0005FF80
0007FF60
0006FF30
0005FF30
0003FF20
0002FF10
0000EF00
0000AE00
00002510
ENDCHAR
STARTCHAR Iacute
ENCODING 205
SWIDTH 401 0
DWIDTH 6 0
BBX 8 16 0 -1
BITMAP
00000A70
0001BFD3
000EEA51
00030000
35555100
6FFFD000
0AFF8000
05FF8000
07FF6000
06FF3000
05FF3000
03FF2000
02FF1000
00EF0000
00AE0000
00251000
ENDCHAR
STARTCHAR Icircumflex
ENCODING 206
SWIDTH 401 0
DWIDTH 6 0
BBX 7 17 -1 -1
BITMAP
00789000
02FFF600
08FCFD00
1EB09F70
4C100A90
03555510
06FFFD00
00AFF800
005FF800
007FF600
006FF300
005FF300
003FF200
002FF100
000EF000
000AE000
00025100
ENDCHAR
STARTCHAR Idieresis
ENCODING 207
SWIDTH 401 0
DWIDTH 6 0
BBX 8 16 -1 -1
BITMAP
36514891
9FF2AFF3
9FF2AFF3
6BB17AA2
03555510
06FFFD00
00AFF800
005FF800
007FF600
006FF300
005FF300
003FF200
002FF100
000EF000
000AE000
00025100
ENDCHAR
STARTCHAR Eth
ENCODING 208
SWIDTH 530 0
DWIDTH 7 0
BBX 8 13 0 -2
BITMAP
00024400
0AFFFF90
0AFFFFF6
04FFFFF9
01FFFFF9
00FF8AF7
36EF87F4
26DF87F0
00AF39C0
007FCEA0
007CEF50
00719600
00204100
ENDCHAR
STARTCHAR Ntilde
ENCODING 209
SWIDTH 610 0
DWIDTH 9 0
BBX 9 17 0 -3
BITMAP
06806D6000
1DFEFFF200
03DE7A8000
0124241000
6FFE1FFC10
0CFF4EF400
0BFFAEF200
0AFFEFF000
08FFFFD000
06FFFFB000
03FEFF9000
00FBEF9000
00EAAF8000
00DB6F6000
00A83C4000
0043120000
0001000000
ENDCHAR
STARTCHAR Ograve
ENCODING 210
SWIDTH 504 0
DWIDTH 7 0
BBX 8 17 -1 -2
BITMAP
08800000
3EFA1000
16AEC000
00003000
00024200
008FFFB1
05FFFFF8
09FFFFFA
07FFFFF9
05FF4FFA
03FD0DFA
01FE0CF7
00DF1EF3
00BF8FE0
006FFF90
00064A40
00000100
ENDCHAR
STARTCHAR Oacute
ENCODING 211
SWIDTH 504 0
DWIDTH 7 0
BBX 9 17 0 -2
BITMAP
000002D200
00004EFA10
0004FD8400
0001200000
0024200000
08FFFB1000
5FFFFF8000
9FFFFFA000
7FFFFF9000
5FF4FFA000
3FD0DFA000
1FE0CF7000
0DF1EF3000
0BF8FE0000
06FFF90000
0064A40000
0000100000
ENDCHAR
STARTCHAR Ocircumflex
ENCODING 212
SWIDTH 504 0
DWIDTH 7 0
BBX 7 18 0 -2
BITMAP
01886000
07FFF200
0DFCF900
5F71DF20
98002D40
00242000
08FFFB10
5FFFFF80
9FFFFFA0
7FFFFF90
5FF4FFA0
3FD0DFA0
1FE0CF70
0DF1EF30
0BF8FE00
06FFF900
0064A400
00001000
ENDCHAR
STARTCHAR Otilde
ENCODING 213
SWIDTH 504 0
DWIDTH 7 0
BBX 7 16 0 -2
BITMAP
5906D700
DFEFFF30
2DE79A00
00242000
08FFFB10
5FFFFF80
9FFFFFA0
7FFFFF90
5FF4FFA0
3FD0DFA0
1FE0CF70
0DF1EF30
0BF8FE00
06FFF900
0064A400
00001000
ENDCHAR
STARTCHAR Odieresis
ENCODING 214
SWIDTH 504 0
DWIDTH 7 0
BBX 7 17 0 -2
BITMAP
66406970
EFC0FFD0
EFC0FFD0
AB90AA80
00242000
08FFFB10
5FFFFF80
9FFFFFA0
7FFFFF90
5FF4FFA0
3FD0DFA0
1FE0CF70
0DF1EF30
0BF8FE00
06FFF900
0064A400
00001000
ENDCHAR
STARTCHAR multiply
ENCODING 215
SWIDTH 359 0
DWIDTH 5 0
BBX 5 6 0 2
BITMAP
1A1A20
9FEFB0
1DFF20
6FFF80
4F8E80
030200
ENDCHAR
STARTCHAR Oslash
ENCODING 216
SWIDTH 658 0
DWIDTH 9 0
BBX 11 13 -1 -2
BITMAP
000033100000
003DFFE70110
00DFFFFF5800
02FFFFFFA000
01FFFFFF4000
00EF99FF5000
00CF5BFF4000
00AFC5FF2000
007F75FD0000
009FCBFA0000
073DFFF40000
220189700000
000001000000
ENDCHAR
STARTCHAR Ugrave
ENCODING 217
SWIDTH 637 0
DWIDTH 9 0
BBX 9 16 0 -1
BITMAP
07A0000000
3DFB100000
15AEE00000
0000300000
1355031000
4FFE0CFE30
0DFD0DFD00
0BFF0DF900
09FF0EF600
07FE0EF200
05FC1FF000
05FD2FE000
03FF4FC000
00FFDFA000
009D9B3000
0012140000
ENDCHAR
STARTCHAR Uacute
ENCODING 218
SWIDTH 637 0
DWIDTH 9 0
BBX 10 16 0 -1
BITMAP
0000002C30
000003DFB1
00003FD940
0000120000
1355031000
4FFE0CFE30
0DFD0DFD00
0BFF0DF900
09FF0EF600
07FE0EF200
05FC1FF000
05FD2FE000
03FF4FC000
00FFDFA000
009D9B3000
0012140000
ENDCHAR
STARTCHAR Ucircumflex
ENCODING 219
SWIDTH 637 0
DWIDTH 9 0
BBX 9 17 0 -1
BITMAP
0008870000
005FFF3000
00CFCFA000
03F80CF300
08A001D500
1355032000
4FFE0CFE30
0DFD0DFD00
0BFF0DF900
09FF0EF600
07FE0EF200
05FC1FF000
05FD2FE000
03FF4FC000
00FFDFA000
009D9B3000
0012140000
ENDCHAR
STARTCHAR Udieresis
ENCODING 220
SWIDTH 637 0
DWIDTH 9 0
BBX 9 16 0 -1
BITMAP
0565068800
0CFD0EFE00
0DFD0EFE00
09BA09A900
1355031000
4FFE0CFE30
0DFD0DFD00
0BFF0DF900
09FF0EF600
07FE0EF200
05FC1FF000
05FD2FE000
03FF4FC000
00FFDFA000
009D9B3000
0012140000
ENDCHAR
STARTCHAR Yacute
ENCODING 221
SWIDTH 688 0
DWIDTH 10 0
BBX 10 16 0 -1
BITMAP
00000007A0
0000009FE4
00000BEB62
0000020000
0245004000
4CFF52FEC5
00AFD7FF70
001CFFF900
0005FFF100
0001EFE000
00009FD000
00005FC000
00003FB000
00001FA000
00000F9000
0000062000
ENDCHAR
STARTCHAR Thorn
ENCODING 222
SWIDTH 521 0
DWIDTH 7 0
BBX 7 15 0 -2
BITMAP
6ABB1000
AFFD0000
8FFC4300
6FFFFF80
4FFFFFC0
3FFFFFD0
2FFFFFC0
0FFA2FA0
0CFB0F80
09FECF40
06FEBA00
05FB0000
05FC0000
02890000
00430000
ENDCHAR
STARTCHAR germandbls
ENCODING 223
SWIDTH 546 0
DWIDTH 8 0
BBX 8 12 0 -1
BITMAP
00123200
0BFFFFB0
5FFFFFF3
6FFFFFF3
7FFFFFF2
6FF79FC0
3FF58F60
1FF7FD20
0EF6DF30
0DF58F30
0AF7DF10
0685D900
ENDCHAR
STARTCHAR agrave
ENCODING 224
SWIDTH 479 0
DWIDTH 7 0
BBX 8 17 -1 -2
BITMAP
06A10000
2CFC2000
159EE100
00003000
02456575
05FFFFE2
009FFFB0
007FFFA0
007FFF90
007FFF80
007FBF90
009F6FA0
009F6FA0
00AFFF80
009F7F70
009C0C60
00120000
ENDCHAR
STARTCHAR aacute
ENCODING 225
SWIDTH 479 0
DWIDTH 7 0
BBX 9 17 0 -2
BITMAP
000001B500
00002DFC20
0002ED9510
0000300000
2456575000
5FFFFE2000
09FFFB0000
07FFFA0000
07FFF90000
07FFF80000
07FBF90000
09F6FA0000
09F6FA0000
0AFFF80000
09F7F70000
09C0C60000
0120000000
ENDCHAR
STARTCHAR acircumflex
ENCODING 226
SWIDTH 479 0
DWIDTH 7 0
BBX 7 18 0 -2
BITMAP
00888000
04FFF400
0AFCFC00
2F90BF50
6B001C60
24565750
5FFFFE20
09FFFB00
07FFFA00
07FFF900
07FFF800
07FBF900
09F6FA00
09F6FA00
0AFFF800
09F7F700
09C0C600
01200000
ENDCHAR
STARTCHAR atilde
ENCODING 227
SWIDTH 479 0
DWIDTH 7 0
BBX 7 16 0 -2
BITMAP
3A14D900
AFEFFF60
1CF97B10
24665750
5FFFFE20
09FFFB00
07FFFA00
07FFF900
07FFF800
07FBF900
09F6FA00
09F6FA00
0AFFF800
09F7F700
09C0C600
01200000
ENDCHAR
STARTCHAR adieresis
ENCODING 228
SWIDTH 479 0
DWIDTH 7 0
BBX 8 17 0 -2
BITMAP
46505880
BFF0CFF0
BFF0CFF1
8BB08AA0
24565750
5FFFFE20
09FFFB00
07FFFA00
07FFF900
07FFF800
07FBF900
09F6FA00
09F6FA00
0AFFF800
09F7F700
09C0C600
01200000
ENDCHAR
STARTCHAR aring
ENCODING 229
SWIDTH 479 0
DWIDTH 7 0
BBX 7 17 0 -2
BITMAP
00AFC200
03E3B700
00E4B400
007D8000
24565750
5FFFFE20
09FFFB00
07FFFA00
07FFF900
07FFF800
07FBF900
09F6FA00
09F6FA00
0AFFF800
09F7F700
09C0C600
01200000
ENDCHAR
STARTCHAR ae
ENCODING 230
SWIDTH 755 0
DWIDTH 11 0
BBX 10 13 0 -2
BITMAP
1456576420
5FFFFFFFFD
08FFFFFFF6
06FFFFFFF1
06FFFFFFE0
06FFFF7790
06FBFF7400
07F7FFFF10
08F6FFA900
08FFFF7510
07F7FFFF30
08E0C57610
0120000000
ENDCHAR
STARTCHAR ccedilla
ENCODING 231
SWIDTH 534 0
DWIDTH 7 0
BBX 8 17 0 -6
BITMAP
00256200
07FFFF50
5FFFFFE2
9FFFFFF1
8FFFFFF2
5FFAAFF0
2FF74DD0
0FF60000
0CF74920
09FABF30
02FFFD00
00379200
0000E200
0004C300
00039F10
00015F10
00039900
ENDCHAR
STARTCHAR egrave
ENCODING 232
SWIDTH 632 0
DWIDTH 9 0
BBX 9 16 0 -1
BITMAP
0980000000
4EFA100000
26AEC00000
0000200000
0023432000
5EFFFFFF30
0DFFFFFA00
0AFFFFF500
07FFFFF300
05FF87B100
02FF741000
00EFFF5000
00DFBA3000
00AF753000
008FFF7000
0031755000
ENDCHAR
STARTCHAR eacute
ENCODING 233
SWIDTH 632 0
DWIDTH 9 0
BBX 9 16 0 -1
BITMAP
0000003D10
000004EFA0
00005FC840
0000120000
0023432000
5EFFFFFF30
0DFFFFFA00
0AFFFFF500
07FFFFF300
05FF87B100
02FF741000
00EFFF5000
00DFBA3000
00AF753000
008FFF7000
0031755000
ENDCHAR
STARTCHAR ecircumflex
ENCODING 234
SWIDTH 632 0
DWIDTH 9 0
BBX 9 17 0 -1
BITMAP
0018860000
007FFE1000
00EFCF8000
06F61DE100
0A7003D300
0023433000
5EFFFFFF30
0DFFFFFA00
0AFFFFF500
07FFFFF300
05FF87B100
02FF741000
00EFFF5000
00DFBA3000
00AF753000
008FFF7000
0031755000
ENDCHAR
STARTCHAR edieresis
ENCODING 235
SWIDTH 632 0
DWIDTH 9 0
BBX 9 16 0 -1
BITMAP
0664069600
0FFB1FFC00
0FFB1FFC00
0AC81AA800
0023432000
5EFFFFFF30
0DFFFFFA00
0AFFFFF500
07FFFFF300
05FF87B100
02FF741000
00EFFF5000
00DFBA3000
00AF753000
008FFF7000
0031755000
ENDCHAR
STARTCHAR igrave
ENCODING 236
SWIDTH 411 0
DWIDTH 6 0
BBX 8 16 -2 -1
BITMAP
02D20000
1AFE4000
048DF400
00002100
00245531
005FFFF1
0008FFA0
0004FF80
0005FF50
0005FF30
0004FF20
0001FF20
0000EE00
0000DE00
0000BC00
00000400
ENDCHAR
STARTCHAR iacute
ENCODING 237
SWIDTH 411 0
DWIDTH 6 0
BBX 8 16 0 -1
BITMAP
00000980
0001BFE3
000DEA61
00030000
24553100
5FFFF100
08FFA000
04FF8000
05FF5000
05FF3000
04FF2000
01FF2000
00EE0000
00DE0000
00BC0000
00040000
ENDCHAR
STARTCHAR icircumflex
ENCODING 238
SWIDTH 411 0
DWIDTH 6 0
BBX 7 17 0 -1
BITMAP
03884000
0AFFD000
2FEDF600
8F43ED00
C5004D20
24553100
5FFFF100
08FFA000
04FF8000
05FF5000
05FF3000
04FF2000
01FF2000
00EE0000
00DE0000
00BC0000
00040000
ENDCHAR
STARTCHAR idieresis
ENCODING 239
SWIDTH 411 0
DWIDTH 6 0
BBX 8 16 -1 -1
BITMAP
37614792
8FF39FF4
8FF39FF4
5BB26AA2
02455310
05FFFF10
008FFA00
004FF800
005FF500
005FF300
004FF200
001FF200
000EE000
000DE000
000BC000
00004000
ENDCHAR
STARTCHAR eth
ENCODING 240
SWIDTH 530 0
DWIDTH 7 0
BBX 8 13 0 -2
BITMAP
00024400
0AFFFF90
0AFFFFF6
04FFFFF9
01FFFFF9
00FF8AF7
36EF87F4
26DF87F0
00AF39C0
007FCEA0
007CEF50
00719600
00204100
ENDCHAR
STARTCHAR ntilde
ENCODING 241
SWIDTH 664 0
DWIDTH 9 0
BBX 9 16 0 -2
BITMAP
02A23CB100
08FEFFF800
00AFA7C200
2455233230
6FFF67FFB0
0EFFB5FF30
0CFFF7FE00
0BFFFDFB00
0AFFFFF900
08FFFFF700
05FDFFF500
03FADFF200
02FA9FE000
00F96FA000
00A44D5000
0000011000
ENDCHAR
STARTCHAR ograve
ENCODING 242
SWIDTH 545 0
DWIDTH 8 0
BBX 9 16 -1 -1
BITMAP
04C1000000
1BFD300000
049DF30000
0000210000
0002441000
008FFFE500
05FFFFFE20
09FFFFFF40
07FFFFFF50
05FF6CFF40
03FF29FF20
01FF18FE00
00DF3AF900
009FAEF500
004DFFE100
00012A6000
ENDCHAR
STARTCHAR oacute
ENCODING 243
SWIDTH 545 0
DWIDTH 8 0
BBX 9 16 0 -1
BITMAP
000000A700
00001CFD20
0000EEA510
0000300000
0024410000
08FFFE5000
5FFFFFE200
9FFFFFF400
7FFFFFF500
5FF6CFF400
3FF29FF200
1FF18FE000
0DF3AF9000
09FAEF5000
04DFFE1000
0012A60000
ENDCHAR
STARTCHAR ocircumflex
ENCODING 244
SWIDTH 545 0
DWIDTH 8 0
BBX 8 17 0 -1
BITMAP
00789000
02FFF600
08FCFD00
1EB09F60
4C100B80
00244100
08FFFE50
5FFFFFE2
9FFFFFF4
7FFFFFF5
5FF6CFF4
3FF29FF2
1FF18FE0
0DF3AF90
09FAEF50
04DFFE10
0012A600
ENDCHAR
STARTCHAR otilde
ENCODING 245
SWIDTH 545 0
DWIDTH 8 0
BBX 8 15 0 -1
BITMAP
2A23CA00
8FEFFF80
0AFA7C20
00244100
08FFFE50
5FFFFFE2
9FFFFFF4
7FFFFFF5
5FF6CFF4
3FF29FF2
1FF18FE0
0DF3AF90
09FAEF50
04DFFE10
0012A600
ENDCHAR
STARTCHAR odieresis
ENCODING 246
SWIDTH 545 0
DWIDTH 8 0
BBX 8 16 0 -1
BITMAP
36504891
9FF2AFF2
9FF2AFF3
6BB17AA2
00244100
08FFFE50
5FFFFFE2
9FFFFFF4
7FFFFFF5
5FF6CFF4
3FF29FF2
1FF18FE0
0DF3AF90
09FAEF50
04DFFE10
0012A600
ENDCHAR
STARTCHAR oslash
ENCODING 248
SWIDTH 676 0
DWIDTH 9 0
BBX 9 12 0 -1
BITMAP
0014410000
05EFFE4070
2FFFFFE820
5FFFFFF400
4FFFFFF300
2FF7CFF300
0EF7CFF100
0CF77FD000
09F3AF9000
2BFAEF6000
72DFFE1000
0002A60000
ENDCHAR
STARTCHAR ugrave
ENCODING 249
SWIDTH 708 0
DWIDTH 10 0
BBX 10 15 0 0
BITMAP
00D3000000
08FF500000
038CF60000
0000120000
0134202000
3EFF61FEC6
0BFF63FFF3
08FF81FFC0
05FF92FF70
02FF92FF30
01FF74FF20
00EF85FF10
00BFB7FC00
006FFEFA00
002BAAD400
ENDCHAR
STARTCHAR uacute
ENCODING 250
SWIDTH 708 0
DWIDTH 10 0
BBX 10 15 0 0
BITMAP
00000006B0
0000008FF5
00000AEB62
0000021000
0134202000
3EFF61FEC6
0BFF63FFF3
08FF81FFC0
05FF92FF70
02FF92FF30
01FF74FF20
00EF85FF10
00BFB7FC00
006FFEFA00
002BAAD400
ENDCHAR
STARTCHAR ucircumflex
ENCODING 251
SWIDTH 708 0
DWIDTH 10 0
BBX 10 16 0 0
BITMAP
0004892000
000DFFA000
004FDEF300
00BE25FB00
01D3007C00
0134202000
3EFF61FEC6
0BFF63FFF3
08FF81FFC0
05FF92FF70
02FF92FF30
01FF74FF20
00EF85FF10
00BFB7FC00
006FFEFA00
002BAAD400
ENDCHAR
STARTCHAR udieresis
ENCODING 252
SWIDTH 708 0
DWIDTH 10 0
BBX 10 15 0 0
BITMAP
0276237930
05FF66FF70
05FF66FF70
03BC44BA40
0134202000
3EFF61FEC6
0BFF63FFF3
08FF81FFC0
05FF92FF70
02FF92FF30
01FF74FF20
00EF85FF10
00BFB7FC00
006FFEFA00
002BAAD400
ENDCHAR
STARTCHAR yacute
ENCODING 253
SWIDTH 604 0
DWIDTH 8 0
BBX 9 16 0 -1
BITMAP
0000004D00
000005FF80
00007FC830
0000210000
0241030000
3DFB0EE910
01CF7FE200
006FFF4000
001FFE0000
000CFC0000
0009FB0000
0005FA0000
0004F90000
0005F80000
0005F60000
0003830000
ENDCHAR
STARTCHAR thorn
ENCODING 254
SWIDTH 498 0
DWIDTH 7 0
BBX 7 15 0 -2
BITMAP
6AA90000
AFF90000
8FF94200
6FFFFF30
4FFFFF70
3FFFFF80
2FFFFF70
0FF77F60
0CF85F40
09FDDF10
06FEB800
05FB0000
05FC0000
02890000
00430000
ENDCHAR
STARTCHAR ydieresis
ENCODING 255
SWIDTH 604 0
DWIDTH 8 0
BBX 9 16 0 -1
BITMAP
0465058810
0AFF1BFF10
0AFF0BFF20
07BB08AA10
0241030000
3DFB0EE910
01CF7FE200
006FFF4000
001FFE0000
000CFC0000
0009FB0000
0005FA0000
0004F90000
0005F80000
0005F60000
0003830000
ENDCHAR
STARTCHAR Amacron
ENCODING 256
SWIDTH 494 0
DWIDTH 7 0
BBX 7 16 0 -3
BITMAP
0BBAA900
0BEDCA00
01111000
4EFFFE30
08FFF800
07FFF500
08FFF400
07FFF300
07FAF200
08F6F300
08EBF200
09FFF100
07F9E000
06A5B000
03216000
00021000
ENDCHAR
STARTCHAR amacron
ENCODING 257
SWIDTH 479 0
DWIDTH 7 0
BBX 7 15 0 -2
BITMAP
09BAAA00
09EDDC00
24565750
5FFFFE20
09FFFB00
07FFFA00
07FFF900
07FFF800
07FBF900
09F6FA00
09F6FA00
0AFFF800
09F7F700
09C0C600
01200000
ENDCHAR
STARTCHAR Abreve
ENCODING 258
SWIDTH 494 0
DWIDTH 7 0
BBX 7 18 0 -3
BITMAP
07E20960
04F97F80
01BFFF20
00038700
01111000
4EFFFE30
08FFF800
07FFF500
08FFF400
07FFF300
07FAF200
08F6F300
08EBF200
09FFF100
07F9E000
06A5B000
03216000
00021000
ENDCHAR
STARTCHAR abreve
ENCODING 259
SWIDTH 479 0
DWIDTH 7 0
BBX 7 17 0 -2
BITMAP
07E20960
04F97F80
01BFFF20
00038700
24565750
5FFFFE20
09FFFB00
07FFFA00
07FFF900
07FFF800
07FBF900
09F6FA00
09F6FA00
0AFFF800
09F7F700
09C0C600
01200000
ENDCHAR
STARTCHAR Aogonek
ENCODING 260
SWIDTH 494 0
DWIDTH 7 0
BBX 7 17 0 -6
BITMAP
01111000
4EFFFE30
08FFF800
07FFF500
08FFF400
07FFF300
07FAF200
08F6F300
08EBF200
09FFF100
07F9E000
06A7C000
032CA000
000F8000
000FB000
000CFE80
0002AD70
ENDCHAR
STARTCHAR aogonek
ENCODING 261
SWIDTH 479 0
DWIDTH 7 0
BBX 8 16 0 -5
BITMAP
24565750
5FFFFE20
09FFFB00
07FFFA00
07FFF900
07FFF800
07FBF900
09F6FA00
09F6FA00
0AFFF800
09F7F700
09C1F500
0123F400
0003F400
0001FEC3
00006EF3
ENDCHAR
STARTCHAR Cacute
ENCODING 262
SWIDTH 504 0
DWIDTH 7 0
BBX 8 17 0 -2
BITMAP
00000980
0001AFE3
000DEA61
00030000
00265100
07FFFC20
5FFFFF90
8FFFFFA0
8FFFFFA0
6FF6DF90
4FF36A60
2FF20000
0EF29910
0AF8EE00
06FFF800
0065A000
00222000
ENDCHAR
STARTCHAR cacute
ENCODING 263
SWIDTH 534 0
DWIDTH 7 0
BBX 8 16 0 -1
BITMAP
000005C0
00007FF6
0009FB72
00021000
00256200
07FFFF50
5FFFFFE2
9FFFFFF1
8FFFFFF2
5FFAAFF0
2FF74DD0
0FF60000
0CF74920
09FABF30
02FFFD00
00379200
ENDCHAR
STARTCHAR Ccircumflex
ENCODING 264
SWIDTH 504 0
DWIDTH 7 0
BBX 7 18 0 -2
BITMAP
00689100
01EFF800
07FCFE10
0DC17F80
3D2009A0
00265100
07FFFC20
5FFFFF90
8FFFFFA0
8FFFFFA0
6FF6DF90
4FF36A60
2FF20000
0EF29910
0AF8EE00
06FFF800
0065A000
00222000
ENDCHAR
STARTCHAR ccircumflex
ENCODING 265
SWIDTH 534 0
DWIDTH 7 0
BBX 8 17 0 -1
BITMAP
00288500
009FFE10
01EEDF70
07F52EE1
0B6003D2
00256200
07FFFF50
5FFFFFE2
9FFFFFF1
8FFFFFF2
5FFAAFF0
2FF74DD0
0FF60000
0CF74920
09FABF30
02FFFD00
00379200
ENDCHAR
STARTCHAR Cdotaccent
ENCODING 266
SWIDTH 504 0
DWIDTH 7 0
BBX 7 18 0 -2
BITMAP
01567300
01FFF800
00FFF800
00DFF800
00AA9500
00265100
07FFFC20
5FFFFF90
8FFFFFA0
8FFFFFA0
6FF6DF90
4FF36A60
2FF20000
0EF29910
0AF8EE00
06FFF800
0065A000
00222000
ENDCHAR
STARTCHAR cdotaccent
ENCODING 267
SWIDTH 534 0
DWIDTH 7 0
BBX 8 17 0 -1
BITMAP
00467500
00CFFC00
00AFFC00
009FFC00
007B9700
00256200
07FFFF50
5FFFFFE2
9FFFFFF1
8FFFFFF2
5FFAAFF0
2FF74DD0
0FF60000
0CF74920
09FABF30
02FFFD00
00379200
ENDCHAR
STARTCHAR Ccaron
ENCODING 268
SWIDTH 504 0
DWIDTH 7 0
BBX 7 18 0 -2
BITMAP
2B200A30
4FB07F90
0DF7FF20
06FFF900
00EFF200
00366100
07FFFC20
5FFFFF90
8FFFFFA0
8FFFFFA0
6FF6DF90
4FF36A60
2FF20000
0EF29910
0AF8EE00
06FFF800
0065A000
00222000
ENDCHAR
STARTCHAR ccaron
ENCODING 269
SWIDTH 534 0
DWIDTH 7 0
BBX 8 17 0 -1
BITMAP
07700480
0CF31EF2
05FCAF90
00DFFF20
007FF900
00266200
07FFFF50
5FFFFFE2
9FFFFFF1
8FFFFFF2
5FFAAFF0
2FF74DD0
0FF60000
0CF74920
09FABF30
02FFFD00
00379200
ENDCHAR
STARTCHAR Dcaron
ENCODING 270
SWIDTH 522 0
DWIDTH 7 0
BBX 8 18 0 -2
BITMAP
069003A0
09F60CF4
03FD8FB0
00BFFF40
004FFB00
00023200
5DFFFE30
2FFFFFD0
0CFFFFF0
0AFFFFE0
09FD6FC0
07FA0F90
05FA0E60
03FA3F40
01FECF30
01EBFD00
0074A200
00232000
ENDCHAR
STARTCHAR dcaron
ENCODING 271
SWIDTH 522 0
DWIDTH 7 0
BBX 8 18 0 -2
BITMAP
069003A0
09F60CF4
03FD8FB0
00BFFF40
004FFB00
00023200
5DFFFE30
2FFFFFD0
0CFFFFF0
0AFFFFE0
09FD6FC0
07FA0F90
05FA0E60
03FA3F40
01FECF30
01EBFD00
0074A200
00232000
ENDCHAR
STARTCHAR Eth.dup2
ENCODING 272
SWIDTH 530 0
DWIDTH 7 0
BBX 8 13 0 -2
BITMAP
00024400
0AFFFF90
0AFFFFF6
04FFFFF9
01FFFFF9
00FF8AF7
36EF87F4
26DF87F0
00AF39C0
007FCEA0
007CEF50
00719600
00204100
ENDCHAR
STARTCHAR Emacron
ENCODING 274
SWIDTH 570 0
DWIDTH 8 0
BBX 8 14 0 -1
BITMAP
04CBBB40
05CDDD30
02444310
5FFFFFF4
0CFFFFE0
0AFFFFA0
09FFFF60
08FB3720
07FDA400
05FFF700
04FB4200
02FDC800
01AEE800
00372300
ENDCHAR
STARTCHAR emacron
ENCODING 275
SWIDTH 632 0
DWIDTH 9 0
BBX 9 14 0 -1
BITMAP
00CBAA7000
01BEDD8000
0023432000
5EFFFFFF30
0DFFFFFA00
0AFFFFF500
07FFFFF300
05FF87B100
02FF741000
00EFFF5000
00DFBA3000
00AF753000
008FFF7000
0031755000
ENDCHAR
STARTCHAR Ebreve
ENCODING 276
SWIDTH 570 0
DWIDTH 8 0
BBX 8 16 0 -1
BITMAP
01D90592
00BE5CF1
006DFFA0
00023940
02444310
5FFFFFF4
0CFFFFE0
0AFFFFA0
09FFFF60
08FB3720
07FDA400
05FFF700
04FB4200
02FDC800
01AEE800
00372300
ENDCHAR
STARTCHAR ebreve
ENCODING 277
SWIDTH 632 0
DWIDTH 9 0
BBX 9 16 0 -1
BITMAP
005E508800
001FB5FB00
000AEFF500
0000369000
0023432000
5EFFFFFF30
0DFFFFFA00
0AFFFFF500
07FFFFF300
05FF87B100
02FF741000
00EFFF5000
00DFBA3000
00AF753000
008FFF7000
0031755000
ENDCHAR
STARTCHAR Edotaccent
ENCODING 278
SWIDTH 570 0
DWIDTH 8 0
BBX 8 17 0 -1
BITMAP
00467400
00DFFB00
00BFFB00
00AFFB00
008A9700
02444310
5FFFFFF4
0CFFFFE0
0AFFFFA0
09FFFF60
08FB3720
07FDA400
05FFF700
04FB4200
02FDC800
01AEE800
00372300
ENDCHAR
STARTCHAR edotaccent
ENCODING 279
SWIDTH 632 0
DWIDTH 9 0
BBX 9 17 0 -1
BITMAP
0035760000
008FFF1000
006FFF1000
005FFF1000
004B990000
0023432000
5EFFFFFF30
0DFFFFFA00
0AFFFFF500
07FFFFF300
05FF87B100
02FF741000
00EFFF5000
00DFBA3000
00AF753000
008FFF7000
0031755000
ENDCHAR
STARTCHAR Eogonek
ENCODING 280
SWIDTH 513 0
DWIDTH 7 0
BBX 8 16 0 -5
BITMAP
02444310
5FFFFFF4
0CFFFFE0
0AFFFFA0
09FFFF60
08FB3720
07FDA400
05FFF700
04FB4200
02FDC800
01FDF800
0045F500
0008D000
0007F730
0002EFF1
00002780
ENDCHAR
STARTCHAR eogonek
ENCODING 281
SWIDTH 632 0
DWIDTH 9 0
BBX 9 16 0 -5
BITMAP
0023432000
5EFFFFFF30
0DFFFFFA00
0AFFFFF500
07FFFFF300
05FF87B100
02FF741000
00EFFF5000
00DFBA3000
00AF753000
008FFF6000
0031CD0000
0000BA0000
0000BE4200
00006FFD00
0000048600
ENDCHAR
STARTCHAR Ecaron
ENCODING 282
SWIDTH 570 0
DWIDTH 8 0
BBX 8 17 0 -1
BITMAP
069003A0
0AF50DF3
03FD8FB0
00BFFF30
005FFB00
02454310
5FFFFFF4
0CFFFFE0
0AFFFFA0
09FFFF60
08FB3720
07FDA400
05FFF700
04FB4200
02FDC800
01AEE800
00372300
ENDCHAR
STARTCHAR ecaron
ENCODING 283
SWIDTH 632 0
DWIDTH 9 0
BBX 9 17 0 -1
BITMAP
0195007600
00EE13FE00
008F9CF600
001FFFD000
0009FF6000
0024443000
5EFFFFFF30
0DFFFFFA00
0AFFFFF500
07FFFFF300
05FF87B100
02FF741000
00EFFF5000
00DFBA3000
00AF753000
008FFF7000
0031755000
ENDCHAR
STARTCHAR Gcircumflex
ENCODING 284
SWIDTH 499 0
DWIDTH 7 0
BBX 7 18 0 -2
BITMAP
00887000
06FFF200
0CFCFA00
4F71CF30
89001D50
00231000
1AFFF800
5FFFFF60
7FFFFFA0
6FFFFF90
4FE5FF60
2FD0AD50
0FD49920
0DF5EF50
0BF5BF40
06FFFF10
0078B400
00200000
ENDCHAR
STARTCHAR gcircumflex
ENCODING 285
SWIDTH 546 0
DWIDTH 8 0
BBX 8 18 0 -2
BITMAP
00689000
02FFF600
08FCFE10
1EB08F70
4C100A90
00232000
0AFFFD40
6FFFFFE1
8FFFFFF5
7FFFFFF5
5FF7CFF2
2FF26FF0
0EF38540
0AF6DFE0
08F94FC0
04FFFFB0
009CDC50
00010000
ENDCHAR
STARTCHAR Gbreve
ENCODING 286
SWIDTH 499 0
DWIDTH 7 0
BBX 7 17 0 -2
BITMAP
0CB04930
0AE5BF30
05DFFC00
00229500
00231000
1AFFF800
5FFFFF60
7FFFFFA0
6FFFFF90
4FE5FF60
2FD0AD50
0FD49920
0DF5EF50
0BF5BF40
06FFFF10
0078B400
00200000
ENDCHAR
STARTCHAR gbreve
ENCODING 287
SWIDTH 546 0
DWIDTH 8 0
BBX 8 17 0 -2
BITMAP
08E10960
05F87F80
01CFFF20
00038700
00232000
0AFFFD40
6FFFFFE1
8FFFFFF5
7FFFFFF5
5FF7CFF2
2FF26FF0
0EF38540
0AF6DFE0
08F94FC0
04FFFFB0
009CDC50
00010000
ENDCHAR
STARTCHAR Gdotaccent
ENCODING 288
SWIDTH 499 0
DWIDTH 7 0
BBX 7 18 0 -2
BITMAP
02577100
06FFF300
04FFF300
03FFF300
02C99200
00231000
1AFFF800
5FFFFF60
7FFFFFA0
6FFFFF90
4FE5FF60
2FD0AD50
0FD49920
0DF5EF50
0BF5BF40
06FFFF10
0078B400
00200000
ENDCHAR
STARTCHAR gdotaccent
ENCODING 289
SWIDTH 546 0
DWIDTH 8 0
BBX 8 18 0 -2
BITMAP
01567300
02FFF700
00FFF700
00EFF800
00BA9400
00232000
0AFFFD40
6FFFFFE1
8FFFFFF5
7FFFFFF5
5FF7CFF2
2FF26FF0
0EF38540
0AF6DFE0
08F94FC0
04FFFFB0
009CDC50
00010000
ENDCHAR
STARTCHAR Gcommaaccent
ENCODING 290
SWIDTH 499 0
DWIDTH 7 0
BBX 7 20 0 -9
BITMAP
00231000
1AFFF800
5FFFFF60
7FFFFFA0
6FFFFF90
4FE5FF60
2FD0AD50
0FD49920
0DF5EF50
0BF5BF40
06FFFF10
0078B400
00200000
007BA600
00AFF900
00BFFA00
007AE900
0000E700
0001F500
00004100
ENDCHAR
STARTCHAR Hcircumflex
ENCODING 292
SWIDTH 726 0
DWIDTH 10 0
BBX 10 19 0 -3
BITMAP
0005892000
000DFFA000
005FCEF300
00BD25FA00
01D3007C00
0013323320
4CEF54FFF7
0CFF31FFE1
0AFF34FFA0
07FF34FF70
04FF24FF20
01FFBCFE00
00EFFFFC00
00DF49FA00
00BF4AF700
00BF4BF500
005206A300
0000010000
0000030000
ENDCHAR
STARTCHAR hcircumflex
ENCODING 293
SWIDTH 730 0
DWIDTH 10 0
BBX 10 17 0 -1
BITMAP
0004893000
000CFFB000
004FDEF300
00AE24FB00
01D3006C00
0025426541
3DFF52FFF9
0BFF40EFF1
09FF42FFA0
07FF42FF80
04FF32FF40
01FFDDFE10
00EFEEFD00
00DF48FB00
00BF59F800
00AF4AF600
0041048400
ENDCHAR
STARTCHAR hbar
ENCODING 295
SWIDTH 704 0
DWIDTH 10 0
BBX 10 12 0 -1
BITMAP
0025336430
3DFF47FFF3
0BFF7AFFB0
09FFFFFF50
07FFFFFF20
04FF16FD00
01FFCEFA00
00EFEEF800
00DF48FA00
00BF59F800
00AF4AF600
0041048400
ENDCHAR
STARTCHAR Itilde
ENCODING 296
SWIDTH 401 0
DWIDTH 6 0
BBX 7 15 -1 -1
BITMAP
2A23CA10
8FEFFF80
0AFA7C20
03655510
06FFFD00
00AFF800
005FF800
007FF600
006FF300
005FF300
003FF200
002FF100
000EF000
000AE000
00025100
ENDCHAR
STARTCHAR itilde
ENCODING 297
SWIDTH 411 0
DWIDTH 6 0
BBX 7 15 -1 -1
BITMAP
2A32BB10
7FEFFF90
09FA6C30
02455310
05FFFF10
008FFA00
004FF800
005FF500
005FF300
004FF200
001FF200
000EE000
000DE000
000BC000
00004000
ENDCHAR
STARTCHAR Imacron
ENCODING 298
SWIDTH 401 0
DWIDTH 6 0
BBX 6 14 0 -1
BITMAP
7CAAB0
7DDDD0
355551
6FFFD0
0AFF80
05FF80
07FF60
06FF30
05FF30
03FF20
02FF10
00EF00
00AE00
002510
ENDCHAR
STARTCHAR imacron
ENCODING 299
SWIDTH 411 0
DWIDTH 6 0
BBX 6 14 0 -1
BITMAP
7CABB1
7DDDE1
245531
5FFFF1
08FFA0
04FF80
05FF50
05FF30
04FF20
01FF20
00EE00
00DE00
00BC00
000400
ENDCHAR
STARTCHAR Ibreve
ENCODING 300
SWIDTH 401 0
DWIDTH 6 0
BBX 6 16 0 -1
BITMAP
7E2096
4F97F8
1BFFF2
003870
355551
6FFFD0
0AFF80
05FF80
07FF60
06FF30
05FF30
03FF20
02FF10
00EF00
00AE00
002510
ENDCHAR
STARTCHAR ibreve
ENCODING 301
SWIDTH 411 0
DWIDTH 6 0
BBX 6 16 0 -1
BITMAP
8E1096
5F87F8
1BFFF2
003870
245531
5FFFF1
08FFA0
04FF80
05FF50
05FF30
04FF20
01FF20
00EE00
00DE00
00BC00
000400
ENDCHAR
STARTCHAR Iogonek
ENCODING 302
SWIDTH 401 0
DWIDTH 6 0
BBX 6 17 0 -6
BITMAP
355551
6FFFD0
0AFF80
05FF80
07FF60
06FF30
05FF30
04FF20
02FF10
00EF00
00DF00
01F810
03F200
05F100
05FA51
01EFF3
001561
ENDCHAR
STARTCHAR iogonek
ENCODING 303
SWIDTH 412 0
DWIDTH 6 0
BBX 6 17 0 -6
BITMAP
245531
5FFFF1
08FFA0
04FF80
05FF50
05FF20
04FF20
01FF20
00EE00
00DE00
00DD00
01F800
04F300
06F300
03FD92
009FF3
000120
ENDCHAR
STARTCHAR Idotaccent
ENCODING 304
SWIDTH 401 0
DWIDTH 6 0
BBX 6 17 0 -1
BITMAP
156730
2FFF70
0FFF70
0EFF70
0BA940
355551
6FFFD0
0AFF80
05FF80
07FF60
06FF30
05FF30
03FF20
02FF10
00EF00
00AE00
002510
ENDCHAR
STARTCHAR dotlessi
ENCODING 305
SWIDTH 411 0
DWIDTH 6 0
BBX 6 12 0 -1
BITMAP
245531
5FFFF1
08FFA0
04FF80
05FF50
05FF30
04FF20
01FF20
00EE00
00DE00
00BC00
000400
ENDCHAR
STARTCHAR IJ
ENCODING 306
SWIDTH 908 0
DWIDTH 13 0
BBX 13 12 0 -1
BITMAP
35555200233100
6FFFF2005FFE10
0AFFB0001FFA00
05FFB0000EF500
07FF90001FF300
06FF70002FF200
05FF60001FE000
03FF50362FC000
01FF40ED2FA000
00EF40CFAF8000
00AE306EDE2000
00251002320000
ENDCHAR
STARTCHAR ij
ENCODING 307
SWIDTH 901 0
DWIDTH 13 0
BBX 13 12 0 -1
BITMAP
24553101452000
5FFFF300DFFC10
08FFC0008FFA00
04FFB0004FF500
05FF80004FF500
05FF60004FF400
04FF50002FF300
01FF50362FF100
00DF30DE2FF000
00CF209FBFC000
00AE103EFF8000
00131000243000
ENDCHAR
STARTCHAR Jcircumflex
ENCODING 308
SWIDTH 455 0
DWIDTH 6 0
BBX 8 17 -1 -1
BITMAP
00058920
000DFF90
005FCFF2
00CD15FA
01D2007C
00033310
000AFFA0
0005FF50
0004FF10
0006FD00
0006FC00
0006FA00
0446F700
3F97F500
1FDCF300
0AEEC000
00241000
ENDCHAR
STARTCHAR jcircumflex
ENCODING 309
SWIDTH 458 0
DWIDTH 6 0
BBX 8 17 -1 -1
BITMAP
00048920
000DFFA0
004FDEF3
00BE25FA
01D3007C
00145200
001EFFA0
000AFF80
0006FF30
0006FF30
0006FF20
0005FF10
0454FE00
2FC4FD00
0EFBFA00
06EFF600
00034200
ENDCHAR
STARTCHAR Kcommaaccent
ENCODING 310
SWIDTH 580 0
DWIDTH 8 0
BBX 8 19 0 -8
BITMAP
14321410
5FFD3FF6
0BFD6F60
05FEAD00
02FFFA00
01FFFA00
00DFFB00
00CFFB00
00AFED00
009C6F10
007D2F40
00231420
001BAA10
002FFF20
003FFF20
002ACF20
00006F00
00009D00
00002300
ENDCHAR
STARTCHAR kcommaaccent
ENCODING 311
SWIDTH 636 0
DWIDTH 9 0
BBX 9 19 0 -8
BITMAP
0122235400
5FFF4CFC30
0AFF4FD100
04FF8F6000
00EFAF3000
00DFDC0000
00CFF90000
009FFC0000
007FDF2000
005F4E8000
003F4AD000
0013234000
0007BA5000
000BFF9000
000BFF9000
0008AE9000
00000E7000
00002F4000
0000141000
ENDCHAR
STARTCHAR kgreenlandic
ENCODING 312
SWIDTH 636 0
DWIDTH 9 0
BBX 9 12 0 -1
BITMAP
0122235400
5FFF4CFC30
0AFF4FD100
04FF8F6000
00EFAF3000
00DFDC0000
00CFF90000
009FFC0000
007FDF2000
005F4E8000
003F4AD000
0013234000
ENDCHAR
STARTCHAR Lacute
ENCODING 313
SWIDTH 416 0
DWIDTH 6 0
BBX 8 16 0 -1
BITMAP
00000980
0001AFE3
000DEA61
00030000
34434000
4FFF4000
1FFC0000
0DFD0000
0CFB0000
0AFB0000
08FC0000
07FC0000
05FC0000
03FFDC20
01FFFE00
00466A00
ENDCHAR
STARTCHAR lacute
ENCODING 314
SWIDTH 438 0
DWIDTH 6 0
BBX 8 16 0 -1
BITMAP
000006B0
00008FF5
000AFB72
00021000
02446400
3FFFB100
0BFF4000
09FF4000
08FF2000
04FF3000
01FF2000
00FF1000
00EF2000
00CFFD50
00AFDF20
00622A00
ENDCHAR
STARTCHAR Lcommaaccent
ENCODING 315
SWIDTH 416 0
DWIDTH 6 0
BBX 7 20 0 -9
BITMAP
34434000
4FFF4000
1FFC0000
0DFD0000
0CFB0000
0AFB0000
08FC0000
07FC0000
05FC0000
03FFDC20
01FFFE00
00466A00
00000000
03BA9000
05FFE000
06FFF000
04ADE000
0009C000
000BA000
00032000
ENDCHAR
STARTCHAR lcommaaccent
ENCODING 316
SWIDTH 438 0
DWIDTH 6 0
BBX 7 20 0 -9
BITMAP
02446400
3FFFB100
0BFF4000
09FF4000
08FF2000
04FF3000
01FF2000
00FF1000
00EF2000
00CFFD50
00AFDF20
00622A00
00000000
01BAA100
02FFF200
03FFF300
02ACF200
0006F100
0008D000
00023000
ENDCHAR
STARTCHAR Lcaron
ENCODING 317
SWIDTH 714 0
DWIDTH 10 0
BBX 10 12 0 -1
BITMAP
344341BAA4
4FFF42FFF7
1FFC03FFF7
0DFD03FFF7
0CFB0156F6
0AFB0002F4
08FC0004F2
07FC000000
05FC000000
03FFDC2000
01FFFE0000
00466A0000
ENDCHAR
STARTCHAR lcaron
ENCODING 318
SWIDTH 782 0
DWIDTH 11 0
BBX 11 12 0 -1
BITMAP
0244642BAA30
3FFFB13FFF60
0BFF403FFF60
09FF404FFF60
08FF20156F50
04FF30003F30
01FF20005F10
00FF10000000
00EF20000000
00CFFD500000
00AFDF200000
00622A000000
ENDCHAR
STARTCHAR Ldotaccent
ENCODING 319
SWIDTH 567 0
DWIDTH 8 0
BBX 9 12 0 -1
BITMAP
3443400000
4FFF400000
1FFC013410
0DFD2FFF80
0CFB0FFF80
0AFB0DFF90
08FC0CDC70
07FC000000
05FC000000
03FFDC2000
01FFFE0000
00466A0000
ENDCHAR
STARTCHAR ldot
ENCODING 320
SWIDTH 660 0
DWIDTH 9 0
BBX 10 12 0 -1
BITMAP
0244640000
3FFFB10000
0BFF400000
09FF414673
08FF21FFF9
04FF30EFF9
01FF20DFF9
00FF10AA95
00EF200000
00CFFD5000
00AFDF2000
00622A0000
ENDCHAR
STARTCHAR Lslash
ENCODING 321
SWIDTH 428 0
DWIDTH 6 0
BBX 7 12 0 -1
BITMAP
34434000
2EFF4000
0CFC0000
0AFD1800
09FEFF20
7EFFFF70
9FFFA300
3CFC0000
02FC0000
01FFDC20
00DEFE00
00356900
ENDCHAR
STARTCHAR lslash
ENCODING 322
SWIDTH 457 0
DWIDTH 6 0
BBX 7 12 0 -1
BITMAP
02446500
2EFFC100
09FF6000
07FF7870
06FFFFB0
4CFFFFC0
7FFFB300
1DFF3000
00CF4000
00AFFD70
008FDF40
00612A10
ENDCHAR
STARTCHAR Nacute
ENCODING 323
SWIDTH 610 0
DWIDTH 9 0
BBX 9 18 0 -3
BITMAP
0000003D10
000004EF90
00005FC830
0000120000
0123241000
6FFE1FFC10
0CFF4EF400
0BFFAEF200
0AFFEFF000
08FFFFD000
06FFFFB000
03FEFF9000
00FBEF9000
00EAAF8000
00DB6F6000
00A83C4000
0043120000
0001000000
ENDCHAR
STARTCHAR nacute
ENCODING 324
SWIDTH 664 0
DWIDTH 9 0
BBX 10 17 0 -2
BITMAP
0000000970
000001BFD3
00000EEA51
0000030000
2455233230
6FFF67FFB0
0EFFB5FF30
0CFFF7FE00
0BFFFDFB00
0AFFFFF900
08FFFFF700
05FDFFF500
03FADFF200
02FA9FE000
00F96FA000
00A44D5000
0000011000
ENDCHAR
STARTCHAR Ncommaaccent
ENCODING 325
SWIDTH 610 0
DWIDTH 9 0
BBX 9 21 0 -10
BITMAP
0123241000
6FFE1FFC10
0CFF4EF400
0BFFAEF200
0AFFEFF000
08FFFFD000
06FFFFB000
03FEFF9000
00FBEF9000
00EAAF8000
00DB6F6000
00A83C4000
0043120000
0001000000
0008BA5000
000BFF9000
000CFF9000
0008AE8000
00000F7000
00002F4000
0000141000
ENDCHAR
STARTCHAR ncommaaccent
ENCODING 326
SWIDTH 664 0
DWIDTH 9 0
BBX 9 20 0 -9
BITMAP
2455233230
6FFF67FFB0
0EFFB5FF30
0CFFF7FE00
0BFFFDFB00
0AFFFFF900
08FFFFF700
05FDFFF500
03FADFF200
02FA9FE000
00F96FA000
00A44D5000
0000011000
0004BA9000
0006FFE000
0006FFE000
0004ADE000
000009C000
00000CA000
0000032000
ENDCHAR
STARTCHAR Ncaron
ENCODING 327
SWIDTH 610 0
DWIDTH 9 0
BBX 9 19 0 -3
BITMAP
04A101A100
07F80AF600
01EF7FD000
008FFF6000
002FFD0000
0124251000
6FFE1FFC10
0CFF4EF400
0BFFAEF200
0AFFEFF000
08FFFFD000
06FFFFB000
03FEFF9000
00FBEF9000
00EAAF8000
00DB6F6000
00A83C4000
0043120000
0001000000
ENDCHAR
STARTCHAR ncaron
ENCODING 328
SWIDTH 664 0
DWIDTH 9 0
BBX 9 18 0 -2
BITMAP
0086006700
00DF22FE10
007FABF700
001EFFE100
0008FF7000
2455233230
6FFF67FFB0
0EFFB5FF30
0CFFF7FE00
0BFFFDFB00
0AFFFFF900
08FFFFF700
05FDFFF500
03FADFF200
02FA9FE000
00F96FA000
00A44D5000
0000011000
ENDCHAR
STARTCHAR Omacron
ENCODING 332
SWIDTH 504 0
DWIDTH 7 0
BBX 7 15 0 -2
BITMAP
0BBAA800
0BEDC900
00242000
08FFFB10
5FFFFF80
9FFFFFA0
7FFFFF90
5FF4FFA0
3FD0DFA0
1FE0CF70
0DF1EF30
0BF8FE00
06FFF900
0064A400
00001000
ENDCHAR
STARTCHAR omacron
ENCODING 333
SWIDTH 545 0
DWIDTH 8 0
BBX 8 14 0 -1
BITMAP
08CAAB00
08EDDD00
00244100
08FFFE50
5FFFFFE2
9FFFFFF4
7FFFFFF5
5FF6CFF4
3FF29FF2
1FF18FE0
0DF3AF90
09FAEF50
04DFFE10
0012A600
ENDCHAR
STARTCHAR Obreve
ENCODING 334
SWIDTH 504 0
DWIDTH 7 0
BBX 7 17 0 -2
BITMAP
0BC02940
08F69F50
03CFFD00
00139500
00242000
08FFFB10
5FFFFF80
9FFFFFA0
7FFFFF90
5FF4FFA0
3FD0DFA0
1FE0CF70
0DF1EF30
0BF8FE00
06FFF900
0064A400
00001000
ENDCHAR
STARTCHAR obreve
ENCODING 335
SWIDTH 545 0
DWIDTH 8 0
BBX 8 16 0 -1
BITMAP
09E01950
06F88F70
02CFFE10
00039600
00244100
08FFFE50
5FFFFFE2
9FFFFFF4
7FFFFFF5
5FF6CFF4
3FF29FF2
1FF18FE0
0DF3AF90
09FAEF50
04DFFE10
0012A600
ENDCHAR
STARTCHAR Ohungarumlaut
ENCODING 336
SWIDTH 504 0
DWIDTH 7 0
BBX 8 18 0 -2
BITMAP
00400500
06F74FB1
0CF49F70
3F61E800
87049000
00242000
08FFFB10
5FFFFF80
9FFFFFA0
7FFFFF90
5FF4FFA0
3FD0DFA0
1FE0CF70
0DF1EF30
0BF8FE00
06FFF900
0064A400
00001000
ENDCHAR
STARTCHAR ohungarumlaut
ENCODING 337
SWIDTH 545 0
DWIDTH 8 0
BBX 8 17 0 -1
BITMAP
00400400
01FB1ED5
07F95FB0
0DA0AC10
3B10C100
00244100
08FFFE50
5FFFFFE2
9FFFFFF4
7FFFFFF5
5FF6CFF4
3FF29FF2
1FF18FE0
0DF3AF90
09FAEF50
04DFFE10
0012A600
ENDCHAR
STARTCHAR OE
ENCODING 338
SWIDTH 789 0
DWIDTH 11 0
BBX 11 13 0 -2
BITMAP
002434443100
08FFFFFFFF50
5FFFFFFFFE00
9FFFFFFFF900
7FFFFFFFF600
6FF4FFC37200
3FD0DFEA5000
1FE0CFFF8000
0EF0EFB42000
0BF8FFEC8000
06FFFBDE9000
0065A5834000
002151604000
ENDCHAR
STARTCHAR oe
ENCODING 339
SWIDTH 778 0
DWIDTH 11 0
BBX 11 12 0 -1
BITMAP
002542332000
08FFFFFFFE30
5FFFFFFFFA00
9FFFFFFFF500
7FFFFFFFF300
4FF5EFE7B100
1FF0BFD41000
0DF0AFFF5000
0BF1CFCA3000
08F9FF952000
04DFFFFF7000
002296655000
ENDCHAR
STARTCHAR Racute
ENCODING 340
SWIDTH 599 0
DWIDTH 8 0
BBX 9 16 0 -1
BITMAP
0000005C00
000007FF70
00008FC730
0000210000
0125530000
5FFFFFD400
0BFFFFFF00
04FFFFFF10
02FFEFFF00
02FF47FE00
00DF7AFB00
00BFFFF600
008FBFE000
007F6DF200
005F7BF200
0027248300
ENDCHAR
STARTCHAR racute
ENCODING 341
SWIDTH 616 0
DWIDTH 9 0
BBX 9 17 0 -2
BITMAP
0000003D10
000005EF90
00005FC830
0000120000
0024430000
6EFFFFE800
0AFFFFFF50
04FFFFFF40
02FFFFFF20
00FF66FE00
00EF88FB00
00CFFFF700
00BFDFC100
00BF5FC000
00AF5EC000
006627C000
0000001000
ENDCHAR
STARTCHAR Rcommaaccent
ENCODING 342
SWIDTH 599 0
DWIDTH 8 0
BBX 9 20 0 -9
BITMAP
0125530000
5FFFFFD400
0BFFFFFF00
04FFFFFF10
02FFEFFF00
02FF47FE00
00DF7AFB00
00BFFFF600
008FBFE000
007F6DF200
005F7BF200
0027248300
0000000000
000BAA2000
001FFF4000
001FFF4000
001ABF4000
00004F2000
00007E0000
0000230000
ENDCHAR
STARTCHAR rcommaaccent
ENCODING 343
SWIDTH 616 0
DWIDTH 9 0
BBX 9 20 0 -9
BITMAP
0024430000
6EFFFFE800
0AFFFFFF50
04FFFFFF40
02FFFFFF20
00FF66FE00
00EF88FB00
00CFFFF700
00BFDFC100
00BF5FC000
00AF5EC000
006627C000
0000001000
0009BA4000
000DFF7000
000DFF7000
0009AF7000
00001F5000
00004F3000
0000140000
ENDCHAR
STARTCHAR Rcaron
ENCODING 344
SWIDTH 599 0
DWIDTH 8 0
BBX 9 17 0 -1
BITMAP
02A3009400
02FD06FB00
00BF7EF300
004FFFB000
000CFF3000
0126540000
5FFFFFD400
0BFFFFFF00
04FFFFFF10
02FFEFFF00
02FF47FE00
00DF7AFB00
00BFFFF600
008FBFE000
007F6DF200
005F7BF200
0027248300
ENDCHAR
STARTCHAR rcaron
ENCODING 345
SWIDTH 616 0
DWIDTH 9 0
BBX 9 18 0 -2
BITMAP
02B2009300
03FC07FA00
00CF7EF300
005FFFA000
000DFF2000
0025440000
6EFFFFE800
0AFFFFFF50
04FFFFFF40
02FFFFFF20
00FF66FE00
00EF88FB00
00CFFFF700
00BFDFC100
00BF5FC000
00AF5EC000
006627C000
0000001000
ENDCHAR
STARTCHAR Sacute
ENCODING 346
SWIDTH 504 0
DWIDTH 7 0
BBX 9 16 0 -1
BITMAP
000002D200
00004EFA10
0004FD8400
0001200000
0003400000
06EFFC1000
2FFFFFB000
8FFFFFA000
9FFFFFA000
9FF5EF9000
5FFB712000
09FFFC0000
0246FF3000
2FF7EF1000
0AFFF90000
0175620000
ENDCHAR
STARTCHAR sacute
ENCODING 347
SWIDTH 481 0
DWIDTH 7 0
BBX 8 16 0 -1
BITMAP
000003D0
00005FF9
0006FC83
00021000
00243000
06FFFA00
3FFFFF60
8FFFFF50
9FFFFF30
9FF6FF20
5FF86510
1CFFF300
005AF900
0DE4F900
0AFFF200
02A86000
ENDCHAR
STARTCHAR Scircumflex
ENCODING 348
SWIDTH 504 0
DWIDTH 7 0
BBX 7 17 0 -1
BITMAP
00489200
00DFFA00
04FDEF30
0BE25FA0
1D3007C0
00034000
06EFFC10
2FFFFFB0
8FFFFFA0
9FFFFFA0
9FF5EF90
5FFB7120
09FFFC00
0246FF30
2FF7EF10
0AFFF900
01756200
ENDCHAR
STARTCHAR scircumflex
ENCODING 349
SWIDTH 481 0
DWIDTH 7 0
BBX 7 17 0 -1
BITMAP
00689100
01FFF700
08FCFE10
0EC08F70
4D100A90
00243000
06FFFA00
3FFFFF60
8FFFFF50
9FFFFF30
9FF6FF20
5FF86510
1CFFF300
005AF900
0DE4F900
0AFFF200
02A86000
ENDCHAR
STARTCHAR Scedilla
ENCODING 350
SWIDTH 504 0
DWIDTH 7 0
BBX 7 16 0 -5
BITMAP
00034000
06EFFC10
2FFFFFB0
8FFFFFA0
9FFFFFA0
9FF5EF90
5FFB7120
09FFFC00
0246FF30
2FF7EF10
0AFFF900
017EE200
000E5100
0009D700
0004C600
00089400
ENDCHAR
STARTCHAR scedilla
ENCODING 351
SWIDTH 481 0
DWIDTH 7 0
BBX 7 16 0 -5
BITMAP
00243000
06FFFA00
3FFFFF60
8FFFFF50
9FFFFF30
9FF6FF20
5FF86510
1CFFF300
005AF900
0DE4F900
0AFFF200
02CF7000
006B2000
004AE000
0027E000
00499000
ENDCHAR
STARTCHAR Scaron
ENCODING 352
SWIDTH 503 0
DWIDTH 7 0
BBX 7 19 0 -1
BITMAP
18100710
5F905F90
0DF4EF30
07FFFB00
01EFF300
00334000
00000000
00034000
06EFFC10
2FFFFFA0
8FFFFFA0
AFFFFF90
9FF5EF90
5FFB7120
09FFFC00
0246FF30
2FF7EF10
0AFFF900
01757200
ENDCHAR
STARTCHAR scaron
ENCODING 353
SWIDTH 479 0
DWIDTH 7 0
BBX 7 19 0 -1
BITMAP
15000500
8F506F60
2FE2EF20
0AFEF900
03FFF200
00555000
00000000
00243000
06FFF900
3FFFFF60
8FFFFF40
9FFFFF30
9FF6FF20
5FF86510
1CFFF300
005AF800
0DE5F800
0AFFF200
02A86000
ENDCHAR
STARTCHAR Tcommaaccent
ENCODING 354
SWIDTH 622 0
DWIDTH 9 0
BBX 9 17 0 -6
BITMAP
0133431000
4FFFFFFD10
0DFFFFFA00
09FFFFF900
08FFFFF700
06ADFC9500
0008FB0000
0008FA0000
0008F90000
0007F80000
0005F90000
0006F70000
0003F40000
0003D30000
00039F3000
00015E2000
0002991000
ENDCHAR
STARTCHAR tcommaaccent
ENCODING 355
SWIDTH 683 0
DWIDTH 10 0
BBX 9 17 0 -6
BITMAP
0035555300
5FFFFFFFD0
0EFFFFFF60
09FFFFFF30
06FFFFFF20
04B9FF8A00
0001FF4000
0001FF5000
0000FF4000
0000DF4000
0000BF3000
0000BF2000
00007F2000
0000982000
00006CB000
000039B000
0000697000
ENDCHAR
STARTCHAR Tcaron
ENCODING 356
SWIDTH 622 0
DWIDTH 9 0
BBX 9 18 0 -2
BITMAP
04A002A100
07F80BF600
01FE7FD000
009FFF6000
003FFD0000
0134441000
4FFFFFFD10
0DFFFFFA00
09FFFFF900
08FFFFF700
06ADFC9500
0008FB0000
0008FA0000
0008F90000
0007F80000
0005F90000
0006F70000
0003210000
ENDCHAR
STARTCHAR tcaron
ENCODING 357
SWIDTH 622 0
DWIDTH 9 0
BBX 9 18 0 -2
BITMAP
02A2009300
03FC06FA00
00BF7EF300
004FFFA000
000DFF3000
0134441000
4FFFFFFD10
0DFFFFFA00
09FFFFF900
08FFFFF700
06ADFC9500
0008FB0000
0008FA0000
0008F90000
0007F80000
0005F90000
0006F70000
0003210000
ENDCHAR
STARTCHAR Utilde
ENCODING 360
SWIDTH 637 0
DWIDTH 9 0
BBX 9 15 0 -1
BITMAP
04A05D8000
0BFEFFF400
02CE88B100
1355031000
4FFE0CFE30
0DFD0DFD00
0BFF0DF900
09FF0EF600
07FE0EF200
05FC1FF000
05FD2FE000
03FF4FC000
00FFDFA000
009D9B3000
0012140000
ENDCHAR
STARTCHAR utilde
ENCODING 361
SWIDTH 708 0
DWIDTH 10 0
BBX 10 14 0 0
BITMAP
019519C200
04FFEFFC00
007FC6C500
0135202000
3EFF61FEC6
0BFF63FFF3
08FF81FFC0
05FF92FF70
02FF92FF30
01FF74FF20
00EF85FF10
00BFB7FC00
006FFEFA00
002BAAD400
ENDCHAR
STARTCHAR Umacron
ENCODING 362
SWIDTH 637 0
DWIDTH 9 0
BBX 9 14 0 -1
BITMAP
00ABAA9000
00AEDCB000
1355031000
4FFE0CFE30
0DFD0DFD00
0BFF0DF900
09FF0EF600
07FE0EF200
05FC1FF000
05FD2FE000
03FF4FC000
00FFDFA000
009D9B3000
0012140000
ENDCHAR
STARTCHAR umacron
ENCODING 363
SWIDTH 708 0
DWIDTH 10 0
BBX 10 13 0 0
BITMAP
004CBBB400
005CDDD300
0134202000
3EFF61FEC6
0BFF63FFF3
08FF81FFC0
05FF92FF70
02FF92FF30
01FF74FF20
00EF85FF10
00BFB7FC00
006FFEFA00
002BAAD400
ENDCHAR
STARTCHAR Ubreve
ENCODING 364
SWIDTH 637 0
DWIDTH 9 0
BBX 9 16 0 -1
BITMAP
00AD029500
007F79F500
003CFFE100
0000396000
1355032000
4FFE0CFE30
0DFD0DFD00
0BFF0DF900
09FF0EF600
07FE0EF200
05FC1FF000
05FD2FE000
03FF4FC000
00FFDFA000
009D9B3000
0012140000
ENDCHAR
STARTCHAR ubreve
ENCODING 365
SWIDTH 708 0
DWIDTH 10 0
BBX 10 15 0 0
BITMAP
002E706910
000EC5DE00
0008EFF800
0000349200
0134202000
3EFF61FEC6
0BFF63FFF3
08FF81FFC0
05FF92FF70
02FF92FF30
01FF74FF20
00EF85FF10
00BFB7FC00
006FFEFA00
002BAAD400
ENDCHAR
STARTCHAR Uring
ENCODING 366
SWIDTH 637 0
DWIDTH 9 0
BBX 9 16 0 -1
BITMAP
000AFC2000
003E3B7000
000E4B4000
0007D80000
1355031000
4FFE0CFE30
0DFD0DFD00
0BFF0DF900
09FF0EF600
07FE0EF200
05FC1FF000
05FD2FE000
03FF4FC000
00FFDFA000
009D9B3000
0012140000
ENDCHAR
STARTCHAR uring
ENCODING 367
SWIDTH 708 0
DWIDTH 10 0
BBX 10 15 0 0
BITMAP
0002DF9000
0008A4E200
0005B4C000
00029D4000
0134202000
3EFF61FEC6
0BFF63FFF3
08FF81FFC0
05FF92FF70
02FF92FF30
01FF74FF20
00EF85FF10
00BFB7FC00
006FFEFA00
002BAAD400
ENDCHAR
STARTCHAR Uhungarumlaut
ENCODING 368
SWIDTH 637 0
DWIDTH 9 0
BBX 9 17 0 -1
BITMAP
0005005000
004F82FB20
00AF68F800
02F70D9000
06903B0000
1355031000
4FFE0CFE30
0DFD0DFD00
0BFF0DF900
09FF0EF600
07FE0EF200
05FC1FF000
05FD2FE000
03FF4FC000
00FFDFA000
009D9B3000
0012140000
ENDCHAR
STARTCHAR uhungarumlaut
ENCODING 369
SWIDTH 708 0
DWIDTH 10 0
BBX 10 16 0 0
BITMAP
0003103200
000CD2AE80
003FC2FE20
009D26E300
00D20A4000
0134202000
3EFF61FEC6
0BFF63FFF3
08FF81FFC0
05FF92FF70
02FF92FF30
01FF74FF20
00EF85FF10
00BFB7FC00
006FFEFA00
002BAAD400
ENDCHAR
STARTCHAR Uogonek
ENCODING 370
SWIDTH 637 0
DWIDTH 9 0
BBX 9 16 0 -5
BITMAP
1355031000
4FFE0CFE30
0DFD0DFD00
0BFF0DF900
09FF0EF600
07FE0EF200
05FC1FF000
05FD2FE000
03FF4FC000
00FFDFA000
009DFF3000
0012EC0000
0000E90000
0000CFB700
00003DF900
0000001000
ENDCHAR
STARTCHAR uogonek
ENCODING 371
SWIDTH 662 0
DWIDTH 9 0
BBX 10 16 0 -5
BITMAP
0134202000
4FFF62FEC6
0CFF53FFF2
09FF72FFC0
06FF82FF60
03FF83FF30
01FF65FF10
00FF86FE00
00BFA8FB00
007FEEF900
002CFFD300
0001F50000
0003F60000
0001FEB500
00005EF600
0000001000
ENDCHAR
STARTCHAR Wcircumflex
ENCODING 372
SWIDTH 777 0
DWIDTH 11 0
BBX 11 18 0 -1
BITMAP
000188600000
0006FFF20000
000DFCF90000
005F71CF2000
0098002D4000
000000000000
001208134100
5BED4F58FE60
1AFE6F8DF900
01EFAFDFD100
00DFEFFF7000
006FFFFF2000
001FFFFF2000
000BFEFD0000
0008FAFB0000
0004F6F50000
0000B5E20000
000001000000
ENDCHAR
STARTCHAR wcircumflex
ENCODING 373
SWIDTH 704 0
DWIDTH 10 0
BBX 10 16 0 0
BITMAP
0004893000
000CFFB000
004FDEF300
00AE24FB00
01D3006C00
0021231100
6EF79B3FD5
09F9BF6FD0
02FCEFCF70
00EFFFFF10
008FFFFC00
003FFFFA00
000EFEF800
000AFAF800
0006F7F400
0002A4D300
ENDCHAR
STARTCHAR Ycircumflex
ENCODING 374
SWIDTH 688 0
DWIDTH 10 0
BBX 10 18 0 -1
BITMAP
0005892000
000DFF9000
005FCFF200
00CD16FA00
02D2008B00
0000000000
0245004000
4CFF52FEC5
00AFD7FF70
001CFFF900
0005FFF100
0001EFE000
00009FD000
00005FC000
00003FB000
00001FA000
00000F9000
0000062000
ENDCHAR
STARTCHAR ycircumflex
ENCODING 375
SWIDTH 604 0
DWIDTH 8 0
BBX 9 17 0 -1
BITMAP
0028850000
009FFD0000
01FEDF6000
07F42EE100
0C6004D200
0241030000
3DFB0EE910
01CF7FE200
006FFF4000
001FFE0000
000CFC0000
0009FB0000
0005FA0000
0004F90000
0005F80000
0005F60000
0003830000
ENDCHAR
STARTCHAR Ydieresis
ENCODING 376
SWIDTH 688 0
DWIDTH 10 0
BBX 10 16 0 -1
BITMAP
0276237930
06FF57FF50
06FF57FF60
04BC35AA30
0245004000
4CFF52FEC5
00AFD7FF70
001CFFF900
0005FFF100
0001EFE000
00009FD000
00005FC000
00003FB000
00001FA000
00000F9000
0000062000
ENDCHAR
STARTCHAR Zacute
ENCODING 377
SWIDTH 695 0
DWIDTH 10 0
BBX 10 16 0 -1
BITMAP
00000004C0
0000006FF7
000008FC73
0000021000
0145553000
5FFFFFFFC4
1EFFFFFFD0
08FFFFFF60
04FFFFFD00
03C5CFE400
0003FF3000
0008F80000
000CD10000
005FFE8000
009EFF5000
0011240000
ENDCHAR
STARTCHAR zacute
ENCODING 378
SWIDTH 622 0
DWIDTH 9 0
BBX 9 16 0 -1
BITMAP
0000003D10
000004EFA0
00005FC840
0000120000
0155552000
5FFFFFFE10
1EFFFFFB00
07FFFFF500
04FFFFF200
01D6EF8000
0014FC0000
0008F40000
000CD00000
002FDC4000
006FFF4000
0013472000
ENDCHAR
STARTCHAR Zdotaccent
ENCODING 379
SWIDTH 695 0
DWIDTH 10 0
BBX 10 17 0 -1
BITMAP
0004575000
000BFFD000
0009FFD000
0008FFD000
0006B98000
0145553000
5FFFFFFFC4
1EFFFFFFD0
08FFFFFF60
04FFFFFD00
03C5CFE400
0003FF3000
0008F80000
000CD10000
005FFE8000
009EFF5000
0011240000
ENDCHAR
STARTCHAR zdotaccent
ENCODING 380
SWIDTH 622 0
DWIDTH 9 0
BBX 9 17 0 -1
BITMAP
0035761000
008FFF1000
006FFF2000
005FFF2000
003B991000
0155552000
5FFFFFFE10
1EFFFFFB00
07FFFFF500
04FFFFF200
01D6EF8000
0014FC0000
0008F40000
000CD00000
002FDC4000
006FFF4000
0013472000
ENDCHAR
STARTCHAR Zcaron
ENCODING 381
SWIDTH 693 0
DWIDTH 10 0
BBX 10 19 0 -1
BITMAP
0045003400
00BE21DE00
005F98F800
000EFFF100
0008FF9000
0001331000
0000000000
0145553000
5FFFFFFFC4
1EFFFFFFD0
09FFFFFF60
04FFFFFD00
03C5CFE400
0003FF3000
0008F70000
000CD10000
005FFE8000
009EFF5000
0011240000
ENDCHAR
STARTCHAR zcaron
ENCODING 382
SWIDTH 621 0
DWIDTH 9 0
BBX 9 19 0 -1
BITMAP
0280018000
07F609F500
01FE5FD000
009FFF6000
003FFD0000
0002220000
0000000000
0255552000
5FFFFFFE10
1EFFFFFB00
07FFFFF500
04FFFFF200
01D6EF8000
0014FB0000
0008F40000
000CD00000
002FDC4000
006FFF4000
0013472000
ENDCHAR
STARTCHAR DZ
ENCODING 497
SWIDTH 194 0
DWIDTH 3 0
BBX 1 1 0 0
BITMAP
00
ENDCHAR
STARTCHAR Dz
ENCODING 498
SWIDTH 194 0
DWIDTH 3 0
BBX 1 1 0 0
BITMAP
00
ENDCHAR
STARTCHAR dotlessj
ENCODING 567
SWIDTH 458 0
DWIDTH 6 0
BBX 7 12 -1 -1
BITMAP
00145200
001EFFA0
000AFF80
0006FF30
0006FF30
0006FF20
0005FF10
0454FE00
2FC4FD00
0EFBFA00
06EFF600
00034200
ENDCHAR
STARTCHAR circumflex
ENCODING 710
SWIDTH 528 0
DWIDTH 7 0
BBX 7 5 0 10
BITMAP
00689000
01FFF700
08FCFE10
1EC08F70
4D100A90
ENDCHAR
STARTCHAR caron
ENCODING 711
SWIDTH 486 0
DWIDTH 7 0
BBX 7 6 0 9
BITMAP
4A001A10
7F80BF60
1EE7FD00
09FFF600
02FFD000
00101000
ENDCHAR
STARTCHAR breve
ENCODING 728
SWIDTH 464 0
DWIDTH 7 0
BBX 6 4 0 -1
BITMAP
5E4088
2FA5FB
0AFFF5
003690
ENDCHAR
STARTCHAR dotaccent
ENCODING 729
SWIDTH 388 0
DWIDTH 5 0
BBX 5 5 0 3
BITMAP
156730
1FFF80
0FFF80
0DFF80
0AA950
ENDCHAR
STARTCHAR ring
ENCODING 730
SWIDTH 370 0
DWIDTH 5 0
BBX 5 4 0 4
BITMAP
1AFC10
4D3C60
1E4B30
08D700
ENDCHAR
STARTCHAR ogonek
ENCODING 731
SWIDTH 360 0
DWIDTH 5 0
BBX 5 6 0 -1
BITMAP
0B5000
2F4000
3F5000
1FEA40
06EF50
000100
ENDCHAR
STARTCHAR tilde
ENCODING 732
SWIDTH 535 0
DWIDTH 8 0
BBX 7 3 0 -1
BITMAP
1941AC20
4FFEFFC0
07FC6C40
ENDCHAR
STARTCHAR hungarumlaut
ENCODING 733
SWIDTH 554 0
DWIDTH 8 0
BBX 8 5 0 10
BITMAP
00500500
02FA1FC4
09F76FA0
1E90CB00
5A01C100
ENDCHAR
STARTCHAR dotaccentcmb
ENCODING 775
SWIDTH 396 0
DWIDTH 6 0
BBX 5 5 0 5
BITMAP
168940
0FFF80
0EFF90
0DFF90
088740
ENDCHAR
STARTCHAR uni030F
ENCODING 783
SWIDTH 549 0
DWIDTH 8 0
BBX 8 5 0 10
BITMAP
01301400
7DB1DD00
2DF2BF40
02E71DB0
003B02D1
ENDCHAR
STARTCHAR uni0311
ENCODING 785
SWIDTH 490 0
DWIDTH 7 0
BBX 7 4 0 5
BITMAP
028A7100
0BFFF700
0FB3DD00
3C605910
ENDCHAR
STARTCHAR uni0326
ENCODING 806
SWIDTH 360 0
DWIDTH 5 0
BBX 5 7 0 -2
BITMAP
0BAA20
0FFF40
1FFF40
1ABF40
004F20
007F00
002300
ENDCHAR
STARTCHAR endash
ENCODING 8211
SWIDTH 478 0
DWIDTH 7 0
BBX 6 3 0 4
BITMAP
2BBAA9
3FFFF9
2CEDD8
ENDCHAR
STARTCHAR emdash
ENCODING 8212
SWIDTH 567 0
DWIDTH 8 0
BBX 8 3 0 4
BITMAP
2BBABAA1
3FFFFFD0
2CEBECB0
ENDCHAR
STARTCHAR quoteleft
ENCODING 8216
SWIDTH 373 0
DWIDTH 5 0
BBX 5 8 0 3
BITMAP
032000
0D8000
0F6000
2FB840
2FFF70
3FFF70
2FFF60
166830
ENDCHAR
STARTCHAR quoteright
ENCODING 8217
SWIDTH 369 0
DWIDTH 5 0
BBX 5 8 0 3
BITMAP
142200
4FFF40
5FFF50
5FFF40
4CEF40
004F30
006F10
004700
ENDCHAR
STARTCHAR quotesinglbase
ENCODING 8218
SWIDTH 369 0
DWIDTH 5 0
BBX 5 8 0 3
BITMAP
142200
4FFF40
5FFF50
5FFF40
4CEF40
004F30
006F10
004700
ENDCHAR
STARTCHAR quotedblleft
ENCODING 8220
SWIDTH 687 0
DWIDTH 10 0
BBX 9 8 0 3
BITMAP
0320014000
0D8007E000
0F6009C000
2FB84BD970
2FFF7BFFD0
3FFF7CFFC0
2FFF6BFFC0
1668356760
ENDCHAR
STARTCHAR quotedblright
ENCODING 8221
SWIDTH 677 0
DWIDTH 9 0
BBX 9 8 0 3
BITMAP
1443023210
4FFF1BFF80
5FFF1CFF90
5FFF1CFF90
5DEF1BDF90
004F000E70
007D001F50
0046001820
ENDCHAR
STARTCHAR quotedblbase
ENCODING 8222
SWIDTH 697 0
DWIDTH 10 0
BBX 10 8 0 -5
BITMAP
2877248670
4FFF48FFF0
5FFF59FFF1
5FFF59FFF0
38AF458CF0
004F2008D0
006F000BB0
0023000320
ENDCHAR
STARTCHAR ellipsis
ENCODING 8230
SWIDTH 1462 0
DWIDTH 20 0
BBX 20 5 0 0
BITMAP
3BDD30005BEB00009CE9
1FFF30005FFD0000AFFA
0FFF40003FFE00008FFB
0EFF30003FFE00008FFB
05321000152200003422
ENDCHAR
STARTCHAR guilsinglleft
ENCODING 8249
SWIDTH 459 0
DWIDTH 6 0
BBX 6 9 0 0
BITMAP
007887
00EFF5
08FF80
5FFD10
5FFB00
0BFF30
01DFD2
002CEC
000001
ENDCHAR
STARTCHAR guilsinglright
ENCODING 8250
SWIDTH 432 0
DWIDTH 6 0
BBX 6 8 0 1
BITMAP
499800
1DFE10
03FFA0
008FF6
007FF6
01DFC1
2CFF30
5DC600
ENDCHAR
STARTCHAR fraction
ENCODING 8260
SWIDTH 371 0
DWIDTH 5 0
BBX 5 12 0 -1
BITMAP
245520
8FFFC0
0CFF60
08FF40
09FF10
09FE00
07FD00
05FD00
02FB00
01FA00
00D900
001300
ENDCHAR
STARTCHAR Euro
ENCODING 8364
SWIDTH 587 0
DWIDTH 8 0
BBX 8 14 0 -3
BITMAP
00035500
008FFFC1
04FFFFF8
08FFFFF9
07FFFFF8
05FF6EF8
8CFF78A5
26FF3000
58EF7A90
00BF8FD0
007FFF60
00065900
00053200
00014000
ENDCHAR
STARTCHAR trademark
ENCODING 8482
SWIDTH 785 0
DWIDTH 11 0
BBX 11 8 0 3
BITMAP
356524747620
8FFF86FAEF30
5FFF63FFFF00
29FA31FFFE00
00E500EDDE00
00E400CCAC00
00D500865800
007200000000
ENDCHAR
STARTCHAR minus
ENCODING 8722
SWIDTH 478 0
DWIDTH 7 0
BBX 6 3 0 4
BITMAP
2BBAA9
3FFFF9
2CEDD8
ENDCHAR
STARTCHAR commaaccent
ENCODING 63171
SWIDTH 360 0
DWIDTH 5 0
BBX 5 7 0 -2
BITMAP
3BAA20
4FFF50
5FFF50
5FFF40
157F40
004F20
007E00
ENDCHAR
STARTCHAR .notdef
ENCODING -1
SWIDTH 365 0
DWIDTH 5 0
BBX 5 10 0 0
BITMAP
355510
722630
700430
700430
700430
700430
700430
700430
700430
777930
ENDCHAR
STARTCHAR .null
ENCODING -1
SWIDTH 0 0
DWIDTH 0 0
BBX 1 1 0 0
BITMAP
00
ENDCHAR
STARTCHAR nonmarkingreturn
ENCODING -1
SWIDTH 333 0
DWIDTH 5 0
BBX 1 1 0 0
BITMAP
00
ENDCHAR
ENDFONT
